<svg xmlns="http://www.w3.org/2000/svg" enable-background="new 0 0 2500 2500" viewBox="0 0 2500 2500" width="2500" height="2500"><path fill="#f8b790" d="M1940.4,2194.6h-170.2l-74.7-882.7h185.1C1880.6,1311.9,1948.7,2202.9,1940.4,2194.6z"/><path d="M1770.2,2194.6v115.2h293.4c0,0,14.2-58.5-76.2-69.1l-47-46.1H1770.2z"/><path fill="#f8b790" d="M2338.9,1637.9C2204,1422.1,2036.1,1157,2036.1,1157l-134,64.3l299.6,508.8l-184.1,123.7l82.7,148.8    c-1.1,3.8,79.1-52,186.5-128c2.3-1.6,4.5-3.2,6.8-4.8c74-52.4,94.3-153.5,46.2-230.4C2339.5,1638.9,2339.2,1638.4,2338.9,1637.9z"/><path d="M2017.6,1853.8l-100.7,56l142.6,256.5c0,0,58-16,23.4-100.2l17.4-63.5L2017.6,1853.8z"/><path d="M452.2,2152.5c0,92.7,75.5,168.2,168.2,168.2s168.2-75.5,168.2-168.2c0-53.9-25.5-101.9-65-132.7h744.6    c-39.5,30.8-65,78.8-65,132.7c0,92.7,75.5,168.2,168.2,168.2c92.7,0,168.2-75.5,168.2-168.2c0-60.5-32.2-113.7-80.3-143.3    c0.2-0.2,0.4-0.4,0.5-0.6c5.5-7.1,7.4-16.4,5.2-25.1l-146.4-567.9l184.1-804.3c0.3-1.2,0.4-2.4,0.6-3.6c0-0.4,0-0.8,0.1-1.2    c0-0.6,0.1-1.1,0.1-1.7V469c0-93.3,66.8-171.3,155-188.8c11.5,14.9,29.4,24.5,49.6,24.5h157.9c34.6,0,62.7-28.1,62.7-62.7v0    c0-34.6-28.1-62.7-62.7-62.7h-157.9c-27.9,0-51.6,18.3-59.7,43.5C1733,245.1,1645.3,347,1645.3,469v114.4L507.4,951.8    c-12,3.9-20.2,15.1-20.2,27.7v436.3c0,16.1,13.1,29.2,29.2,29.2h717.4c6.9,34.9,24.1,108.2,63.9,267.4    c24.9,99.5,50.3,199,63.1,249.1H596.2c-16.1,0-29.2,13.1-29.2,29.2c0,0.8,0.1,1.5,0.1,2.3C500.5,2015.3,452.2,2078.4,452.2,2152.5    z M1361,736.8l-44.5,229.5c-72.1,17.8-153.6,37.8-239.3,58.7l30.7-206.2L1361,736.8z M545.5,1186.5c39.3-9.4,121.1-29,222.5-53.4    l-12,137l-210.5,20.1V1186.5z M801.2,1125.1c73.3-17.7,154.8-37.4,236.8-57.3l-26.5,177.8l-222.8,21.3L801.2,1125.1z     M778.3,1386.7l7.6-87l220.7-21.1l-16.1,108.1H778.3z M1023.3,1386.7l16.6-111.3l220.7-21.1l-25.7,132.4H1023.3z M804.2,1091.1    L819.9,912l253.6-82.1l-30.3,203.3C965,1052.2,884,1071.8,804.2,1091.1z M1309.6,1001.3l-42.7,219.8l-222.2,21.3l27.2-182.9    C1162,1037.6,1241.4,1018.2,1309.6,1001.3z M1344.3,992.8c34.5-8.6,65.8-16.4,93.7-23.4c53.7-13.5,95.4-24.2,123.9-31.8    c2.4-0.6,4.7-1.3,6.9-1.9l-60,262.3l-208.1,19.9L1344.3,992.8z M1267.8,1386.7l26.3-135.6l207-19.8l-35.6,155.4H1267.8z     M545.5,1386.7v-64l207.6-19.9l-7.3,83.9H545.5z M545.5,1000.8l240.9-78L771,1099.1c-78,18.8-154.4,37.1-225.4,54.1V1000.8z     M1634.6,648.2L1577,900c-36.9,10.4-118.9,31.2-225.9,57.7l45.1-232.3L1634.6,648.2z M1599.3,1961.6h-205.1    c-47-183-109.5-431.9-127.4-516.5h199.5L1599.3,1961.6z M1461.6,2152.5c0-60.6,49.3-109.9,109.9-109.9s109.9,49.3,109.9,109.9    c0,60.6-49.3,109.9-109.9,109.9S1461.6,2213.1,1461.6,2152.5z M510.5,2152.5c0-60.6,49.3-109.9,109.9-109.9    s109.9,49.3,109.9,109.9c0,60.6-49.3,109.9-109.9,109.9S510.5,2213.1,510.5,2152.5z"/><path fill="#f8b790" d="M1605.4,1267.8c-2.3,5.8-32.5,103,4.6,147.2s75.9,28.8,72.5,27.6c-3.5-1.2,6.9-209.3,6.9-209.3L1605.4,1267.8    z"/><path d="M1786.3,548.6H1995c0,0,19-183.5-101.2-177.2C1773.6,377.7,1786.3,548.6,1786.3,548.6z"/><path fill="#f8b790" d="M1932.7,528.8c-45.5,7.7-63.7-46.1-63.7-46.1s-24.8-10-29.3-23.2c0,0,0,0,0,0c-1.3-4-0.8-8.2,2.8-12.6    c15.7-18.8,25.7,3.2,25.7,3.2c7.4,0.2,45.2-19.2,58.7-47.3c0,0,10.8,36.7,36.6,41C1964.9,446.8,1978.2,521.2,1932.7,528.8z"/><path fill="#f8b790" d="M1869,482.7c0,0,16.7,45-0.3,113l81.8-9.9c0,0-18.4-31.1-9.3-76.1L1869,482.7z"/><path fill="#d85f4b" d="M2129,928.2c0,0,1.5,65.9,4,135.7c-17.5-1.3-34.8-7.6-49.6-19l-81.8-63.1l-6.9-5.3h-271.6    c0,0-17.6,251.5-140.1,175.3c-38.7-24.1,0.6-234,0.6-234c14.3-89.4,51.4-254.8,135.2-307.3c25.3-15.9,55.4-26.9,87.7-33.9    c0.3-0.1,0.7-0.1,1-0.2c57.9-12.3,122.8-11.5,180.1-1.9c20.8,3.5,40.6,8.1,58.6,13.7c32.4,10,59.3,23,76.9,38    c2.8,2.3,5.6,5.1,8.4,8.1c0,0,0,0,0,0.1C2133.8,643.2,2129,928.2,2129,928.2z"/><path fill="#fff" d="M2046.2,588.1c-9.2,90.8-28.2,254.5-44.6,393.6l-6.9-5.3h-181.8c-1.2-137.8-4.6-311.3-6.5-399.9    c0.3-0.1,0.7-0.2,1-0.2c57.9-12.3,122.8-11.5,180.1-1.9C2008.3,577.9,2028.1,582.6,2046.2,588.1z"/><path fill="#d85f4b" d="M1571.2,1001.3l-49.5,268.8c0,0,172.6,21.4,173.3,21.4s28.1-315.1,28.1-315.1L1571.2,1001.3z"/><path d="M2274.3,1504h-377.9h-256.2c29.1-190.8,84.9-555.9,87.7-571.2l401.1-4.6L2274.3,1504z"/><rect width="371.1" height="3.5" x="1743.1" y="974.7" fill="#fff"/><path fill="#fff" d="M2034.2,924.5l-3.5-0.4c12-107.1,34.6-311.6,33.8-318.6c0,0,0,0.3,0.2,0.6l2.9-1.9c0.5,0.8,1,1.5-4.2,52.2    c-2.7,26.6-6.7,63.5-11.7,109.6C2043.2,844.5,2034.3,923.7,2034.2,924.5z"/><path fill="#fff" d="M1789,924.3c0-0.8-1.6-81.2-3-160.8c-2.8-161.6-2.1-162.9-1.7-163.8l3.1,1.7c0.1-0.2,0.1-0.4,0.2-0.4    c-1,6.3,2.8,214.2,5,323.3L1789,924.3z"/><polygon points="1727.9 932.8 1743.1 691.7 1717.8 842.2"/><path fill="#d85f4b" d="M2209.4,989.3l-37.8,15.1l-12.9-33.6l-27.4-71.4c0,0-33.6-48.5-37.1-52.5c3.7-4.5,39.5-208.2,39.5-208.2    s122.5,129.5,151.4,205.9C2314.1,920.9,2309.8,951.1,2209.4,989.3z"/><path d="M2131.4,902.1c-1.2,0-2.3-0.8-2.6-2.1l-7.3-29.6c-0.3-1.2,0.3-2.4,1.3-3l52.9-29c1.3-0.7,3-0.2,3.7,1.1s0.2,3-1.1,3.7    l-51.1,28l6.8,27.6c0.4,1.5-0.5,2.9-2,3.3C2131.8,902,2131.6,902.1,2131.4,902.1z"/><path d="M2124,843.4c-1.4,0-2.5-1-2.7-2.4c-2.4-19.6-23.6-192-23.6-196.7c0-1.5,1.2-2.7,2.7-2.7c1.5,0,2.7,1.2,2.7,2.7    c0.1,4.6,15.5,130.2,23.6,196.1c0.2,1.5-0.9,2.8-2.4,3C2124.3,843.4,2124.2,843.4,2124,843.4z M2103.2,644.4L2103.2,644.4    L2103.2,644.4z"/><path fill="#f8b790" d="M2158.7,970.7l-19.8,4.9l-18.4,22.1c-1.5,11.2-23.5,11.4-23.5,11.4c-14.7,13-21.5-7.6-21.5-7.6    c-23.8,11.8-24.5-8.6-24.5-8.6c-20.5,7.5-20.5-7.2-21.6-7.6c-1.1-0.4,26.3-49,26.3-49c-35.3,0.1-33.9-18.3-33.9-18.3l64.5-1    c0,0,20.7-8.1,45.1-17.7L2158.7,970.7z"/><path d="M1786.3,548.6c0,0,2.9,98.8,37.2,125.5h73.7L1876,548.6l-34.3-29.5L1786.3,548.6z"/><path d="M1938.7,539.2c0,0,22.6,82.7,0,134.8h51.1c0,0,4.1-95.9,5.2-125.5S1938.7,539.2,1938.7,539.2z"/><path fill="#5975ca" d="M800.1,357H259.9c-69.4,0-125.7,56.3-125.7,125.7v0c0,69.4,56.3,125.7,125.7,125.7h540.2    c69.4,0,125.7-56.3,125.7-125.7v0C925.8,413.3,869.5,357,800.1,357z"/><path fill="#fff" d="M343.8,489.4c17.3,0,31.4-14.1,31.4-31.4s-14.1-31.4-31.4-31.4c-15.7,0-30.4,6.1-41.5,17.2     c-9.6,9.6-15.5,22-16.9,35.3c-0.2,0.7-0.3,1.5-0.3,2.3c0,0.4,0,0.7,0.1,1.1c0,1-0.1,1.9-0.1,2.9v19.6c0,17.2,14,31.2,31.2,31.2     H344c17.2,0,31.2-14,31.2-31.2c0-4.5-3.6-8.1-8.1-8.1s-8.1,3.6-8.1,8.1c0,8.3-6.8,15.1-15.1,15.1h-27.7     c-8.3,0-15.1-6.8-15.1-15.1v-15.5H343.8z M343.8,442.7c8.4,0,15.3,6.9,15.3,15.3c0,8.4-6.9,15.3-15.3,15.3h-40.8     C308.1,455.6,324.5,442.7,343.8,442.7z"/><path fill="#fff" d="M459.6,426.5h-2c-7.4,0-14.1,3.2-18.8,8.4c-0.9-1-1.9-1.9-3-2.8c-4.5-3.6-10.1-5.6-15.8-5.6     c-13.9,0-25.3,11.3-25.3,25.3V528c0,4.5,3.6,8.1,8.1,8.1c4.5,0,8.1-3.6,8.1-8.1v-76.2c0-5,4.1-9.1,9.1-9.1c4.1,0,7.6,2.7,8.8,6.5     l0.7,28.7c0.1,4.2,3.5,7.7,7.7,7.9c4.2,0.2,7.9-3,8.4-7.2l2.8-25.9c0-0.3,0-0.6,0-0.9c0-5,4.1-9.1,9.1-9.1h2c5,0,9.1,4.1,9.1,9.1     V528c0,4.5,3.6,8.1,8.1,8.1s8.1-3.6,8.1-8.1v-76.2C484.9,437.9,473.6,426.5,459.6,426.5z"/><path fill="#fff" d="M576.3,519.9h-6.6c-12.3,0-22.4-10-22.4-22.4V466h18.2c4.5,0,8.1-3.6,8.1-8.1c0-4.5-3.6-8.1-8.1-8.1h-18.2     v-41.8c0-4.5-3.6-8.1-8.1-8.1c-4.5,0-8.1,3.6-8.1,8.1v41.8h-18.7c-4.5,0-8.1,3.6-8.1,8.1c0,4.5,3.6,8.1,8.1,8.1h18.7v31.5     c0,21.2,17.3,38.5,38.5,38.5h6.6c4.5,0,8.1-3.6,8.1-8.1C584.4,523.5,580.8,519.9,576.3,519.9z"/><path fill="#fff" d="M652.8,430.6l-40.7,0c0,0,0,0,0,0c-2.1,0-4.2,0.8-5.7,2.4c-1.5,1.5-2.4,3.6-2.4,5.7L604,557.4     c0,4.5,3.6,8.1,8.1,8.1c0,0,0,0,0,0c4.5,0,8.1-3.6,8.1-8.1l0-51.3l32.6,0c0,0,0,0,0,0c15,0,26.8-16.6,26.8-37.7     c0-9.4-2.4-18.4-6.7-25.3C667.9,435.1,660.6,430.6,652.8,430.6z M652.8,490C652.8,490,652.8,490,652.8,490l-32.6,0l0-43.2l32.6,0     c2.1,0,4.5,1.8,6.4,4.9c2.7,4.3,4.2,10.4,4.2,16.7C663.5,481.5,657.1,490,652.8,490z"/><path fill="#fff" d="M766.9,430.6c-4.5,0-8.1,3.6-8.1,8.1v17.6v0.4c0,8.2-2.2,16.1-6,21.7c-1.9,2.7-5.8,7.4-11.2,7.4h-12.2     c-6.6,0-14-10-14-24.4v-22.8c0-4.5-3.6-8.1-8.1-8.1c-4.5,0-8.1,3.6-8.1,8.1v22.8c0,10.3,2.8,20,7.9,27.5c5.6,8.3,13.8,13,22.3,13     h12.2c6.1,0,12.1-2.3,17.2-6.4v10c0,9.9-2.7,19.4-7.3,26.2c-2.3,3.4-7.3,9.2-14.3,9.2h-29.9c-4.5,0-8.1,3.6-8.1,8.1     c0,4.5,3.6,8.1,8.1,8.1h29.9c5.5,0,10.8-1.6,15.8-4.6c4.5-2.8,8.5-6.7,11.8-11.6c6.5-9.5,10.1-22.1,10.1-35.3v-48.8v-0.4v-17.6     C774.9,434.2,771.3,430.6,766.9,430.6z"/><path fill="#354c8a" d="M1404.3,195.3h-173.2c-44.8,0-81.2,36.4-81.2,81.2v166.7l-54.2,222.5l135.4-62.7h173.2    c44.8,0,81.2-36.4,81.2-81.2V276.5C1485.5,231.7,1449.1,195.3,1404.3,195.3z"/><path fill="#fff" d="M1329.5,514.8h-23.7c-39.8,0-72.1-32.4-72.1-72.1v-87c0-39.8,32.4-72.1,72.1-72.1h23.7    c39.8,0,72.1,32.4,72.1,72.1v87C1401.7,482.5,1369.3,514.8,1329.5,514.8z M1305.8,326.6c-16,0-29.1,13-29.1,29.1v87    c0,16,13,29.1,29.1,29.1h23.7c16,0,29.1-13,29.1-29.1v-87c0-16-13-29.1-29.1-29.1H1305.8z"/><path d="M1433,1139c-1.4,0-2.9-0.6-3.8-1.8c-2.6-3.1-5.1-6.2-7.6-9.4c-1.7-2.2-1.4-5.3,0.8-7c2.2-1.7,5.3-1.4,7,0.8    c2.5,3.1,5,6.2,7.5,9.2c1.8,2.1,1.5,5.3-0.6,7C1435.3,1138.6,1434.1,1139,1433,1139z M1401.6,1097.6c-1.6,0-3.1-0.8-4.1-2.2    c-2.3-3.3-4.6-6.7-6.8-10c-1.5-2.3-0.9-5.4,1.4-6.9c2.3-1.5,5.4-0.9,6.9,1.4c2.2,3.3,4.4,6.6,6.7,9.9c1.6,2.3,1,5.4-1.3,7    C1403.6,1097.3,1402.6,1097.6,1401.6,1097.6z M1373.8,1053.6c-1.7,0-3.4-0.9-4.3-2.5c-2-3.4-4-7-6-10.5c-1.3-2.4-0.5-5.5,1.9-6.8    c2.4-1.3,5.5-0.5,6.8,1.9c1.9,3.5,3.9,7,5.9,10.4c1.4,2.4,0.6,5.4-1.8,6.8C1375.6,1053.4,1374.7,1053.6,1373.8,1053.6z     M1349.3,1007.8c-1.8,0-3.6-1-4.5-2.8c-1.8-3.6-3.6-7.2-5.3-10.8c-1.2-2.5-0.2-5.5,2.3-6.7c2.5-1.2,5.5-0.2,6.7,2.3    c1.7,3.6,3.5,7.2,5.2,10.7c1.2,2.5,0.2,5.5-2.3,6.7C1350.8,1007.7,1350,1007.8,1349.3,1007.8z M1327.3,960.7c-1.9,0-3.8-1.1-4.6-3    c-1.6-3.7-3.2-7.4-4.8-11.1c-1.1-2.5,0.1-5.5,2.6-6.6c2.5-1.1,5.5,0.1,6.6,2.6c1.6,3.7,3.1,7.3,4.7,11c1.1,2.5,0,5.5-2.6,6.6    C1328.7,960.5,1328,960.7,1327.3,960.7z M1307.2,912.7c-2,0-3.9-1.2-4.6-3.1c-1.5-3.7-3-7.5-4.5-11.2c-1-2.6,0.2-5.5,2.8-6.5    c2.6-1,5.5,0.2,6.5,2.8c1.5,3.7,2.9,7.4,4.4,11.1c1,2.6-0.2,5.5-2.8,6.5C1308.5,912.6,1307.9,912.7,1307.2,912.7z M1288.2,864.3    c-2,0-3.9-1.2-4.7-3.2c-1.5-3.7-2.9-7.5-4.4-11.2c-1-2.6,0.3-5.5,2.8-6.5c2.6-1,5.5,0.3,6.5,2.8c1.5,3.7,2.9,7.4,4.4,11.2    c1,2.6-0.3,5.5-2.8,6.5C1289.4,864.2,1288.8,864.3,1288.2,864.3z M1268.9,816c-2,0-3.8-1.2-4.6-3.1c-1.5-3.7-3.1-7.4-4.6-11    c-1.1-2.5,0.1-5.5,2.7-6.6c2.5-1.1,5.5,0.1,6.6,2.7c1.6,3.7,3.1,7.4,4.6,11.1c1.1,2.6-0.2,5.5-2.7,6.5    C1270.2,815.8,1269.5,816,1268.9,816z M624.2,814c-0.3,0-0.6,0-0.8-0.1c-4-0.7-8.1-1.6-12.2-2.6c-2.7-0.7-4.3-3.4-3.6-6.1    c0.7-2.7,3.4-4.3,6.1-3.6c3.8,1,7.6,1.8,11.3,2.5c2.7,0.5,4.6,3,4.1,5.8C628.7,812.3,626.6,814,624.2,814z M663.9,813.6    c-2.3,0-4.4-1.6-4.9-4c-0.5-2.7,1.2-5.3,3.9-5.9c3.7-0.7,7.4-1.7,11.1-2.8c2.6-0.8,5.4,0.7,6.2,3.3c0.8,2.6-0.7,5.4-3.3,6.2    c-4,1.2-8.1,2.3-12.1,3.1C664.6,813.6,664.2,813.6,663.9,813.6z M575.3,796.9c-0.8,0-1.5-0.2-2.3-0.5c-3.5-1.8-7.1-3.7-10.8-5.8    c-2.4-1.4-3.3-4.4-1.9-6.8c1.4-2.4,4.4-3.3,6.8-1.9c3.5,2,7,3.8,10.4,5.6c2.5,1.3,3.4,4.3,2.2,6.7    C578.9,795.9,577.2,796.9,575.3,796.9z M711.7,794.1c-1.7,0-3.4-0.9-4.3-2.5c-1.4-2.4-0.6-5.4,1.8-6.8c3.2-1.9,6.5-3.9,10.1-6.2    c2.3-1.5,5.4-0.8,6.9,1.5c1.5,2.3,0.8,5.4-1.5,6.9c-3.6,2.3-7,4.4-10.4,6.4C713.5,793.9,712.6,794.1,711.7,794.1z M530.8,770.1    c-0.9,0-1.8-0.2-2.6-0.7c-3.4-2.1-6.8-4.2-10.2-6.2c-2.4-1.4-3.2-4.5-1.8-6.8c1.4-2.4,4.5-3.2,6.8-1.8c3.4,2,6.9,4.1,10.4,6.2    c2.4,1.4,3.1,4.5,1.6,6.9C534.1,769.3,532.5,770.1,530.8,770.1z M1247.9,768.4c-1.9,0-3.6-1-4.5-2.8c-1.8-3.6-3.5-7.2-5.3-10.7    c-1.2-2.5-0.3-5.5,2.2-6.7c2.5-1.2,5.5-0.3,6.7,2.2c1.8,3.5,3.6,7.1,5.4,10.9c1.2,2.5,0.1,5.5-2.3,6.7    C1249.4,768.2,1248.6,768.4,1247.9,768.4z M754.9,765.2c-1.6,0-3.1-0.7-4.1-2.1c-1.6-2.2-1.1-5.4,1.2-7l9.8-7    c2.2-1.6,5.4-1.1,7,1.2c1.6,2.2,1.1,5.4-1.2,7l-9.8,7C756.9,764.9,755.9,765.2,754.9,765.2z M485.4,744.8c-0.8,0-1.5-0.2-2.2-0.5    c-3.6-1.8-7.2-3.5-10.7-5.2c-2.5-1.2-3.6-4.2-2.4-6.7c1.2-2.5,4.2-3.6,6.7-2.4c3.6,1.7,7.3,3.5,10.9,5.3c2.5,1.2,3.5,4.2,2.2,6.7    C489,743.7,487.2,744.8,485.4,744.8z M797.4,735.3c-1.6,0-3.2-0.8-4.1-2.2c-1.5-2.3-0.9-5.4,1.3-6.9c3.4-2.3,6.8-4.5,10.1-6.7    c2.3-1.5,5.4-0.9,6.9,1.4c1.5,2.3,0.9,5.4-1.4,6.9c-3.2,2.1-6.6,4.3-9.9,6.6C799.4,735,798.4,735.3,797.4,735.3z M437.8,724.1    c-0.6,0-1.1-0.1-1.7-0.3c-3.7-1.4-7.5-2.7-11.2-3.9c-2.6-0.9-4.1-3.7-3.2-6.3c0.9-2.6,3.7-4,6.3-3.2c3.8,1.3,7.7,2.6,11.5,4    c2.6,0.9,3.9,3.8,3,6.4C441.7,722.8,439.8,724.1,437.8,724.1z M1222.9,722.8c-1.7,0-3.3-0.8-4.2-2.3c-2.2-3.4-4.3-6.7-6.5-9.8    c-1.6-2.3-1-5.4,1.3-7c2.3-1.6,5.4-1,7,1.3c2.3,3.2,4.5,6.7,6.7,10.2c1.5,2.3,0.8,5.4-1.5,6.9    C1224.8,722.5,1223.9,722.8,1222.9,722.8z M285.1,716.5c-2.8,0-5-2.2-5-5c0-1.9,1.1-3.5,2.6-4.4c0.1-0.1,0.3-0.2,0.6-0.3    c2.4-1.3,5.5-0.4,6.8,2.1c1.3,2.4,0.4,5.5-2.1,6.8c-0.2,0.1-0.3,0.2-0.4,0.2C286.8,716.3,285.9,716.5,285.1,716.5z M387.8,709.9    c-0.3,0-0.6,0-1-0.1c-3.9-0.8-7.8-1.4-11.6-2c-2.7-0.4-4.6-3-4.2-5.7s3-4.6,5.7-4.2c3.9,0.6,8,1.3,12,2.1c2.7,0.5,4.5,3.2,4,5.9    C392.2,708.3,390.1,709.9,387.8,709.9z M841.5,707.7c-1.7,0-3.4-0.9-4.3-2.5c-1.4-2.4-0.5-5.5,1.9-6.8c3.5-2,7.1-4,10.6-5.9    c2.4-1.3,5.5-0.4,6.8,2c1.3,2.4,0.4,5.5-2,6.8c-3.4,1.9-6.9,3.8-10.4,5.8C843.2,707.5,842.3,707.7,841.5,707.7z M324.1,706.2    c-2.5,0-4.7-1.9-5-4.5c-0.3-2.7,1.7-5.2,4.5-5.5c4-0.4,8.1-0.7,12.3-0.8c2.8-0.1,5.1,2.1,5.2,4.8c0.1,2.8-2.1,5.1-4.8,5.2    c-4,0.1-7.9,0.4-11.6,0.8C324.5,706.2,324.3,706.2,324.1,706.2z M887.7,683.9c-1.9,0-3.7-1.1-4.5-2.9c-1.2-2.5-0.1-5.5,2.5-6.6    c3.6-1.7,7.4-3.3,11-4.9c2.5-1.1,5.5,0.1,6.6,2.6c1.1,2.5-0.1,5.5-2.6,6.6c-3.6,1.6-7.3,3.2-10.9,4.9    C889.1,683.7,888.4,683.9,887.7,683.9z M1190.9,682c-1.3,0-2.6-0.5-3.5-1.5c-2.8-2.8-5.6-5.5-8.5-8c-2.1-1.8-2.3-5-0.5-7.1    c1.8-2.1,5-2.3,7.1-0.5c3,2.7,6,5.5,9,8.4c1.9,2,1.9,5.1,0,7.1C1193.5,681.5,1192.2,682,1190.9,682z M935.8,664.3    c-2.1,0-4-1.3-4.7-3.3c-0.9-2.6,0.4-5.5,3-6.4c3.8-1.3,7.6-2.7,11.4-4c2.6-0.9,5.5,0.5,6.3,3.2c0.9,2.6-0.5,5.5-3.2,6.3    c-3.8,1.3-7.5,2.6-11.2,3.9C936.9,664.2,936.3,664.3,935.8,664.3z M1149.3,651.6c-0.7,0-1.5-0.2-2.2-0.5c-3.4-1.7-7-3.3-10.5-4.7    c-2.6-1-3.8-3.9-2.8-6.5c1-2.6,3.9-3.8,6.5-2.8c3.8,1.5,7.6,3.2,11.3,5.1c2.5,1.2,3.5,4.2,2.2,6.7    C1152.9,650.6,1151.1,651.6,1149.3,651.6z M985.4,648.9c-2.2,0-4.2-1.5-4.8-3.7c-0.7-2.7,0.9-5.4,3.5-6.1c3.9-1,7.8-2,11.7-3    c2.7-0.7,5.4,1,6.1,3.6c0.7,2.7-1,5.4-3.6,6.1c-3.8,1-7.7,2-11.5,3C986.2,648.8,985.8,648.9,985.4,648.9z M1036.2,638    c-2.4,0-4.6-1.8-4.9-4.3c-0.4-2.7,1.5-5.3,4.2-5.7c4.1-0.6,8.2-1.1,12.1-1.5c2.7-0.3,5.2,1.7,5.5,4.5c0.3,2.7-1.7,5.2-4.5,5.5    c-3.8,0.4-7.8,0.9-11.7,1.5C1036.6,637.9,1036.4,638,1036.2,638z M1099.9,636.8c-0.2,0-0.4,0-0.7,0c-3.8-0.5-7.7-0.9-11.6-1.2    c-2.8-0.2-4.8-2.6-4.6-5.3c0.2-2.8,2.6-4.8,5.3-4.6c4.1,0.3,8.3,0.7,12.2,1.2c2.7,0.4,4.7,2.9,4.3,5.6    C1104.5,634.9,1102.4,636.8,1099.9,636.8z"/><g><path d="M235.9,674.7l-51.7,13c-18.9,4.7-30.4,23.9-25.7,42.8l0,0c4.7,18.9,23.9,30.4,42.8,25.7l51.7-13     c18.9-4.7,30.4-23.9,25.7-42.8l0,0C274,681.5,254.8,670,235.9,674.7z"/><ellipse cx="177.6" cy="659.5" rx="26" ry="50.8" transform="rotate(-29.926 177.61 659.472)"/><ellipse cx="231" cy="649.4" fill="#4d4d4d" rx="61.6" ry="31.5" transform="rotate(-78.387 231.052 649.468)"/></g></svg>