<?xml version="1.0" encoding="utf-8"?>
<!-- Generator: Adobe Illustrator 27.5.0, SVG Export Plug-In . SVG Version: 6.00 Build 0)  -->
<svg version="1.1" xmlns="http://www.w3.org/2000/svg" xmlns:xlink="http://www.w3.org/1999/xlink" x="0px" y="0px"
	 viewBox="0 0 3710 3710" style="enable-background:new 0 0 3710 3710;" xml:space="preserve">
<g id="Background">
	<g>
		<g>
			<rect style="fill:#FFFFFF;" width="3710" height="3710"/>
		</g>
	</g>
</g>
<g id="Illustration">
	<g>
		<linearGradient id="SVGID_1_" gradientUnits="userSpaceOnUse" x1="3609.8484" y1="4069.1563" x2="1127.6033" y2="986.3638">
			<stop  offset="0" style="stop-color:#DAE3FE"/>
			<stop  offset="1" style="stop-color:#E9EFFD"/>
		</linearGradient>
		<path style="fill:url(#SVGID_1_);" d="M2928.569,2852.306c-57.104,59.964-111.135,98.634-153.824,129.186
			c-501.802,359.133-1095.566,254.447-1221.758,228.882c-186.345-37.751-546.547-110.724-806.967-416.194
			c-393.993-462.149-332.642-1190.253-27.035-1670.884c55.9-87.916,351.183-575.868,951.342-654.12
			c363.21-47.357,786.597,48.157,1093.201,304.377C3407.12,1311.384,3361.303,2397.896,2928.569,2852.306z"/>
		<g>
			<path style="fill:#91B3FA;" d="M1602.375,3027.729c0,0-371.707-1123.184-989.245-1699.777
				c-41.512-38.759-109.44-16.504-119.621,39.369C425.429,1740.937,330.259,2864.506,1602.375,3027.729z"/>
			<path style="opacity:0.5;fill:#FFFFFF;" d="M1481.67,2963.74c3.039,2.493-0.291,7.145-3.636,5.082
				c-123.342-76.04-608.074-460.253-846.976-1289.34c-0.768-2.663,3.127-4.043,4.121-1.456
				C708.458,1868.649,1001.198,2569.579,1481.67,2963.74z"/>
		</g>
		<g>
			<path style="fill:#BDD0FB;" d="M787.759,480.265c-61.736,310.149-274.662,1714.676,791.69,2283.814
				c20.742,11.071,45.863-3.632,46.277-27.14c4.397-249.975-20.479-1385.507-783.308-2270.96
				C825.316,446.13,792.874,454.569,787.759,480.265z"/>
			<path style="opacity:0.5;fill:#FFFFFF;" d="M885.471,831.603c-0.625-5.421-8.643-4.887-8.485,0.568
				c7.251,249.865,79.391,1020.576,660.425,1807.099C1537.411,2639.27,1000.961,1833.577,885.471,831.603z"/>
		</g>
		<g>
			<g>
				
					<linearGradient id="SVGID_00000167364430959340915300000013536477727671400362_" gradientUnits="userSpaceOnUse" x1="1176.9901" y1="1760.259" x2="2844.2278" y2="1760.259">
					<stop  offset="0" style="stop-color:#09005D"/>
					<stop  offset="1" style="stop-color:#1A0F91"/>
				</linearGradient>
				<path style="fill:url(#SVGID_00000167364430959340915300000013536477727671400362_);" d="M1204.26,592.853
					c-8.776,414.229-37.246,1843.05-23.654,2349.382c1.44,53.641,38.196,96.696,84.048,98.45
					c226.778,8.683,1058.137,30.688,1429.072,12.483c77.26-3.792,138.698-77.005,140.301-167.446
					c7.709-434.784,24.716-1657.664-15.705-2217.869c-4.844-67.121-49.877-120.573-107.17-127.276
					c-246.973-28.905-1081.908-99.555-1402.372-75.229C1250.983,469.738,1205.699,525.121,1204.26,592.853z"/>
				<path style="fill:#91B3FA;" d="M1305.449,719.942c-12.205,334.342-50.709,1446.62-38.489,1857.918
					c1.786,60.116,42.289,108.726,93.622,112.238c211.344,14.47,932.41,46.373,1242.402,17.335
					c55.82-5.229,99.623-58.041,102.634-123.458c15.71-341.096,60.815-1376.784,49.1-1783.472
					c-1.867-64.878-44.827-117.864-100.093-123.666c-228.647-24.019-994.856-81.159-1258.28-64.347
					C1346.894,615.647,1307.564,662.06,1305.449,719.942z"/>
				<path style="fill:#7D97F4;" d="M1865.611,547.819L1865.611,547.819c0,12.711,8.468,23.193,19.318,23.857
					c53.565,3.282,204.453,12.568,271.889,17.145c13.295,0.902,23.732-13.08,21.209-28.376l-0.431-2.613
					c-1.721-10.439-9.121-18.295-18.172-19.265c-45.581-4.887-183.122-18.436-274.256-14.63
					C1874.22,524.393,1865.611,535.007,1865.611,547.819z"/>
			</g>
			<g style="opacity:0.86;">
				<path style="opacity:0.67;fill:#FFFFFF;" d="M2643.661,2126.501H1878.27c-16.032,0-29.029-13.095-29.029-29.25v-280.36
					c0-15.959,12.696-28.972,28.532-29.245l773.295-13.336c16.533-0.285,29.963,13.383,29.515,30.038l-7.904,293.696
					C2672.253,2113.884,2659.387,2126.501,2643.661,2126.501z"/>
				<path style="opacity:0.67;fill:#FFFFFF;" d="M2627.444,2628.065h-753.007c-15.773,0-28.559-13.258-28.559-29.613v-283.841
					c0-16.157,12.49-29.332,28.07-29.608l760.782-13.502c16.266-0.289,29.478,13.549,29.037,30.411l-7.775,297.343
					C2655.573,2615.292,2642.915,2628.065,2627.444,2628.065z"/>
				<path style="opacity:0.67;fill:#FFFFFF;" d="M1760.756,2626.521l-404.422-16.963c-19.019-0.798-34.053-17.54-34.053-37.922
					v-243.945c0-20.96,15.867-37.951,35.44-37.951h404.422c19.573,0,35.44,16.991,35.44,37.951v260.908
					C1797.583,2610.141,1780.858,2627.364,1760.756,2626.521z"/>
				<path style="opacity:0.67;fill:#FFFFFF;" d="M1764.119,2132.506l-404.422-16.963c-19.019-0.798-34.053-17.54-34.053-37.922
					v-243.945c0-20.96,15.867-37.951,35.44-37.951h404.422c19.573,0,35.44,16.991,35.44,37.951v260.908
					C1800.946,2116.126,1784.22,2133.349,1764.119,2132.506z"/>
				<path style="opacity:0.67;fill:#FFFFFF;" d="M1762.414,2250.239h-395.152c-3.946,0-7.144-3.199-7.144-7.144v-37.168
					c0-3.946,3.198-7.144,7.144-7.144h395.152c3.946,0,7.144,3.198,7.144,7.144v37.168
					C1769.558,2247.04,1766.359,2250.239,1762.414,2250.239z"/>
				<path style="opacity:0.67;fill:#FFFFFF;" d="M1765.592,1761.663h-397.868c-3.429,0-6.208-2.779-6.208-6.208v-39.041
					c0-3.429,2.779-6.208,6.208-6.208h397.868c3.429,0,6.208,2.779,6.208,6.208v39.041
					C1771.8,1758.883,1769.021,1761.663,1765.592,1761.663z"/>
				<path style="opacity:0.67;fill:#FFFFFF;" d="M2666.291,1147.166h-765.392c-16.032,0-29.029-13.171-29.029-29.418V835.769
					c0-16.051,12.696-29.139,28.532-29.414l773.295-13.413c16.533-0.287,29.963,13.46,29.515,30.211l-7.903,295.391
					C2694.883,1134.475,2682.017,1147.166,2666.291,1147.166z"/>
				<path style="opacity:0.67;fill:#FFFFFF;" d="M2650.073,1651.625h-753.007c-15.773,0-28.559-13.334-28.559-29.783v-285.479
					c0-16.25,12.49-29.501,28.07-29.779l760.783-13.58c16.266-0.29,29.478,13.627,29.037,30.587l-7.775,299.059
					C2678.203,1638.777,2665.545,1651.625,2650.073,1651.625z"/>
				<path style="opacity:0.67;fill:#FFFFFF;" d="M1783.386,1650.071l-404.422-17.061c-19.019-0.802-34.053-17.641-34.053-38.141
					v-245.353c0-21.081,15.867-38.17,35.44-38.17h404.422c19.573,0,35.44,17.089,35.44,38.17v262.414
					C1820.212,1633.597,1803.487,1650.92,1783.386,1650.071z"/>
				<path style="opacity:0.67;fill:#FFFFFF;" d="M1786.749,1153.205l-404.422-17.061c-19.018-0.802-34.053-17.641-34.053-38.141
					V852.65c0-21.081,15.867-38.17,35.44-38.17h404.422c19.573,0,35.44,17.089,35.44,38.17v262.414
					C1823.575,1136.731,1806.85,1154.053,1786.749,1153.205z"/>
				<path style="opacity:0.67;fill:#FFFFFF;" d="M1785.043,1271.617h-395.153c-3.946,0-7.144-3.198-7.144-7.144v-37.465
					c0-3.946,3.199-7.144,7.144-7.144h395.153c3.946,0,7.144,3.199,7.144,7.144v37.465
					C1792.188,1268.418,1788.989,1271.617,1785.043,1271.617z"/>
				<path style="opacity:0.67;fill:#FFFFFF;" d="M1788.222,780.221h-397.868c-3.429,0-6.208-2.779-6.208-6.208v-39.338
					c0-3.429,2.779-6.208,6.208-6.208h397.868c3.429,0,6.208,2.779,6.208,6.208v39.338
					C1794.429,777.442,1791.65,780.221,1788.222,780.221z"/>
			</g>
		</g>
		<g>
			
				<linearGradient id="SVGID_00000091731709569929990950000007009055466850982283_" gradientUnits="userSpaceOnUse" x1="1954.3684" y1="3388.415" x2="2367.2073" y2="2394.1155">
				<stop  offset="0" style="stop-color:#4F52FF"/>
				<stop  offset="1" style="stop-color:#4042E2"/>
			</linearGradient>
			<path style="fill:url(#SVGID_00000091731709569929990950000007009055466850982283_);" d="M2209.239,2867.024
				c4.106,0,7.759-2.922,8.54-7.107l56.621-303.818c0.879-4.72-2.236-9.263-6.958-10.143c-4.706-0.888-9.262,2.234-10.144,6.958
				l-56.621,303.818c-0.879,4.72,2.236,9.262,6.958,10.143C2208.173,2866.975,2208.71,2867.024,2209.239,2867.024z"/>
			
				<linearGradient id="SVGID_00000065760255576899748170000008205306777357812363_" gradientUnits="userSpaceOnUse" x1="1729.7952" y1="3295.1721" x2="2142.635" y2="2300.8696">
				<stop  offset="0" style="stop-color:#4F52FF"/>
				<stop  offset="1" style="stop-color:#4042E2"/>
			</linearGradient>
			<path style="fill:url(#SVGID_00000065760255576899748170000008205306777357812363_);" d="M1807.41,2878.304h465.316
				c9.606,0,17.395-7.789,17.395-17.396c0-9.606-7.789-17.395-17.395-17.395h-453.888l-117.586-271.797h671.496
				c9.606,0,17.395-7.789,17.395-17.395c0-9.606-7.789-17.395-17.395-17.395h-697.974c-5.859,0-11.322,2.948-14.539,7.844
				c-3.215,4.896-3.752,11.082-1.427,16.458l132.637,306.587C1794.201,2874.182,1800.474,2878.304,1807.41,2878.304z"/>
			<g>
				
					<linearGradient id="SVGID_00000145777356303229573380000000172230135103945907_" gradientUnits="userSpaceOnUse" x1="1966.6842" y1="3393.5295" x2="2379.5244" y2="2399.2268">
					<stop  offset="0" style="stop-color:#4F52FF"/>
					<stop  offset="1" style="stop-color:#4042E2"/>
				</linearGradient>
				<path style="fill:url(#SVGID_00000145777356303229573380000000172230135103945907_);" d="M1838.276,3182.573h366.661
					c8.008,0,15.067-5.261,17.353-12.937l218.366-728.559h152.528c10,0,18.107-8.107,18.107-18.107
					c0-9.999-8.107-18.106-18.107-18.106h-166.026c-8.008,0-15.067,5.26-17.353,12.937l-218.366,728.559h-353.162
					c-10,0-18.107,8.108-18.107,18.107C1820.169,3174.466,1828.276,3182.573,1838.276,3182.573z"/>
			</g>
			<g>
				
					<linearGradient id="SVGID_00000124122291249100324680000006520939868276599217_" gradientUnits="userSpaceOnUse" x1="4782.6563" y1="2048.3235" x2="4745.6631" y2="2347.6284" gradientTransform="matrix(-1 0 0 1 6843.292 0)">
					<stop  offset="0" style="stop-color:#09005D"/>
					<stop  offset="1" style="stop-color:#1A0F91"/>
				</linearGradient>
				
					<circle style="fill:url(#SVGID_00000124122291249100324680000006520939868276599217_);" cx="2204.182" cy="3209.733" r="45.267"/>
				
					<linearGradient id="SVGID_00000008118592799802710700000017394640907173191847_" gradientUnits="userSpaceOnUse" x1="4605.1602" y1="3209.7336" x2="4670.5454" y2="3209.7336" gradientTransform="matrix(-1 0 0 1 6843.292 0)">
					<stop  offset="0" style="stop-color:#4F52FF"/>
					<stop  offset="1" style="stop-color:#4042E2"/>
				</linearGradient>
				<path style="fill:url(#SVGID_00000008118592799802710700000017394640907173191847_);" d="M2172.747,3209.733
					c0,18.056,14.637,32.693,32.692,32.693c18.056,0,32.693-14.637,32.693-32.693c0-18.055-14.637-32.692-32.693-32.692
					C2187.383,3177.041,2172.747,3191.678,2172.747,3209.733z"/>
			</g>
			<g>
				
					<linearGradient id="SVGID_00000121251149453643616660000003620974298795831475_" gradientUnits="userSpaceOnUse" x1="5120.02" y1="2090.0269" x2="5083.0269" y2="2389.332" gradientTransform="matrix(-1 0 0 1 6843.292 0)">
					<stop  offset="0" style="stop-color:#09005D"/>
					<stop  offset="1" style="stop-color:#1A0F91"/>
				</linearGradient>
				
					<circle style="fill:url(#SVGID_00000121251149453643616660000003620974298795831475_);" cx="1861.663" cy="3209.733" r="45.267"/>
				
					<linearGradient id="SVGID_00000072990410210183950860000000513252943236818582_" gradientUnits="userSpaceOnUse" x1="4947.6787" y1="3209.7336" x2="5013.064" y2="3209.7336" gradientTransform="matrix(-1 0 0 1 6843.292 0)">
					<stop  offset="0" style="stop-color:#4F52FF"/>
					<stop  offset="1" style="stop-color:#4042E2"/>
				</linearGradient>
				<path style="fill:url(#SVGID_00000072990410210183950860000000513252943236818582_);" d="M1830.228,3209.733
					c0,18.056,14.637,32.693,32.693,32.693c18.055,0,32.692-14.637,32.692-32.693c0-18.055-14.637-32.692-32.692-32.692
					C1844.865,3177.041,1830.228,3191.678,1830.228,3209.733z"/>
			</g>
			
				<linearGradient id="SVGID_00000011014038578994566080000017801940446390226053_" gradientUnits="userSpaceOnUse" x1="1867.8003" y1="3352.4717" x2="2280.6392" y2="2358.1716">
				<stop  offset="0" style="stop-color:#4F52FF"/>
				<stop  offset="1" style="stop-color:#4042E2"/>
			</linearGradient>
			<path style="fill:url(#SVGID_00000011014038578994566080000017801940446390226053_);" d="M2131.895,2868.404
				c4.722,0,8.596-3.78,8.691-8.523l6.024-301.036c0.096-4.802-3.718-8.774-8.521-8.869c-4.886-0.193-8.774,3.718-8.869,8.521
				l-6.024,301.036c-0.096,4.803,3.718,8.774,8.521,8.869C2131.776,2868.404,2131.835,2868.404,2131.895,2868.404z"/>
			
				<linearGradient id="SVGID_00000136394101108612824840000010904694938291894920_" gradientUnits="userSpaceOnUse" x1="1789.6027" y1="3320.0049" x2="2202.4424" y2="2325.7031">
				<stop  offset="0" style="stop-color:#4F52FF"/>
				<stop  offset="1" style="stop-color:#4042E2"/>
			</linearGradient>
			<path style="fill:url(#SVGID_00000136394101108612824840000010904694938291894920_);" d="M2043.508,2867.022
				c4.804,0,8.698-3.895,8.698-8.698v-299.675c0-4.803-3.894-8.698-8.698-8.698c-4.803,0-8.697,3.894-8.697,8.698v299.675
				C2034.811,2863.127,2038.705,2867.022,2043.508,2867.022z"/>
			
				<linearGradient id="SVGID_00000146473429216915296240000011082683480381973947_" gradientUnits="userSpaceOnUse" x1="1700.1384" y1="3282.8577" x2="2112.9771" y2="2288.5586">
				<stop  offset="0" style="stop-color:#4F52FF"/>
				<stop  offset="1" style="stop-color:#4042E2"/>
			</linearGradient>
			<path style="fill:url(#SVGID_00000146473429216915296240000011082683480381973947_);" d="M1939.93,2865.642c0,0,0.042,0,0.062,0
				c4.803-0.034,8.672-3.954,8.638-8.757l-2.06-298.274c-0.034-4.784-3.922-8.638-8.695-8.638c-0.022,0-0.043,0-0.043,0
				c-4.823,0.034-8.691,3.954-8.657,8.757l2.06,298.273C1931.269,2861.788,1935.157,2865.642,1939.93,2865.642z"/>
			
				<linearGradient id="SVGID_00000016756201038470238630000007182095784778563458_" gradientUnits="userSpaceOnUse" x1="1619.8269" y1="3249.5134" x2="2032.6664" y2="2255.2119">
				<stop  offset="0" style="stop-color:#4F52FF"/>
				<stop  offset="1" style="stop-color:#4042E2"/>
			</linearGradient>
			<path style="fill:url(#SVGID_00000016756201038470238630000007182095784778563458_);" d="M1872.633,2863.085
				c0.548,0,1.106-0.053,1.665-0.161c4.715-0.916,7.797-5.479,6.882-10.195l-56.534-291.366c-0.916-4.712-5.483-7.789-10.195-6.881
				c-4.716,0.915-7.797,5.478-6.882,10.194l56.533,291.366C1864.91,2860.197,1868.552,2863.085,1872.633,2863.085z"/>
			
				<linearGradient id="SVGID_00000016065496539661173310000007040072120661892740_" gradientUnits="userSpaceOnUse" x1="1747.9335" y1="3302.7058" x2="2160.7734" y2="2308.4033">
				<stop  offset="0" style="stop-color:#4F52FF"/>
				<stop  offset="1" style="stop-color:#4042E2"/>
			</linearGradient>
			<path style="fill:url(#SVGID_00000016065496539661173310000007040072120661892740_);" d="M1706.546,2637.778h642.16
				c4.803,0,8.698-3.894,8.698-8.698c0-4.803-3.894-8.697-8.698-8.697h-642.16c-4.803,0-8.697,3.894-8.697,8.697
				C1697.849,2633.884,1701.743,2637.778,1706.546,2637.778z"/>
			
				<linearGradient id="SVGID_00000007394965954295755120000002292742046468525458_" gradientUnits="userSpaceOnUse" x1="1783.3584" y1="3317.4121" x2="2196.1987" y2="2323.1091">
				<stop  offset="0" style="stop-color:#4F52FF"/>
				<stop  offset="1" style="stop-color:#4042E2"/>
			</linearGradient>
			<path style="fill:url(#SVGID_00000007394965954295755120000002292742046468525458_);" d="M1745.213,2726.161h574.494
				c4.804,0,8.698-3.895,8.698-8.698c0-4.803-3.894-8.698-8.698-8.698h-574.494c-4.803,0-8.697,3.895-8.697,8.698
				C1736.516,2722.267,1740.41,2726.161,1745.213,2726.161z"/>
			
				<linearGradient id="SVGID_00000126301180782573237560000010906142075749938831_" gradientUnits="userSpaceOnUse" x1="1819.2816" y1="3332.3279" x2="2232.1216" y2="2338.0251">
				<stop  offset="0" style="stop-color:#4F52FF"/>
				<stop  offset="1" style="stop-color:#4042E2"/>
			</linearGradient>
			<path style="fill:url(#SVGID_00000126301180782573237560000010906142075749938831_);" d="M1783.881,2807.641h513.73
				c4.803,0,8.698-3.894,8.698-8.697s-3.895-8.698-8.698-8.698h-513.73c-4.803,0-8.698,3.895-8.698,8.698
				S1779.078,2807.641,1783.881,2807.641z"/>
		</g>
		<g>
			<g>
				<g>
					<g>
						
							<linearGradient id="SVGID_00000116926035617904372470000011607425035163560853_" gradientUnits="userSpaceOnUse" x1="4783.7085" y1="3209.7634" x2="4771.1221" y2="3264.3044" gradientTransform="matrix(-1 0 0 1 7529.2593 0)">
							<stop  offset="0" style="stop-color:#4F52FF"/>
							<stop  offset="1" style="stop-color:#4042E2"/>
						</linearGradient>
						<path style="fill:url(#SVGID_00000116926035617904372470000011607425035163560853_);" d="M2660.767,3229.329
							c33.046,2.856,90.399,7.497,135.614,9.486c27.179,1.197,42.827-1.465,51.838-5.073c-0.015,1.016-0.044,1.977-0.083,2.868
							c-0.214,4.757-4.081,8.564-8.886,8.832c-85.434,4.769-153.381,1.65-177.571,0.178c-5.001-0.304-7.982-5.74-5.424-10.004
							C2657.534,3233.483,2659.085,3231.394,2660.767,3229.329z"/>
						
							<linearGradient id="SVGID_00000094584111764205943870000009653546588128250757_" gradientUnits="userSpaceOnUse" x1="4681.0293" y1="3200.8528" x2="4868.4922" y2="3200.8528" gradientTransform="matrix(-1 0 0 1 7529.2593 0)">
							<stop  offset="0" style="stop-color:#09005D"/>
							<stop  offset="1" style="stop-color:#1A0F91"/>
						</linearGradient>
						<path style="fill:url(#SVGID_00000094584111764205943870000009653546588128250757_);" d="M2796.381,3238.815
							c-45.214-1.989-102.567-6.629-135.614-9.486c32.49-39.862,135.614-66.728,135.614-66.728h29.125
							c20.032,28.876,22.933,56.368,22.714,71.141C2839.208,3237.35,2823.56,3240.011,2796.381,3238.815z"/>
						
							<linearGradient id="SVGID_00000091713102021857008160000011817127816205581205_" gradientUnits="userSpaceOnUse" x1="4698.8486" y1="3148.0708" x2="4753.1846" y2="3148.0708" gradientTransform="matrix(-1 0 0 1 7529.2593 0)">
							<stop  offset="0" style="stop-color:#FEBBBA"/>
							<stop  offset="1" style="stop-color:#FF928E"/>
						</linearGradient>
						<path style="fill:url(#SVGID_00000091713102021857008160000011817127816205581205_);" d="M2830.411,3115.052l-2.726,53.935
							c-0.295,5.841-4.667,10.749-10.517,11.585c-5.819,0.832-13.614,0.938-21.878-1.813c-5.085-1.693-8.86-5.977-9.797-11.203
							l-9.418-52.504H2830.411z"/>
					</g>
					<g>
						<g>
							
								<linearGradient id="SVGID_00000001646805324356205640000017759617124529601155_" gradientUnits="userSpaceOnUse" x1="4333.9429" y1="3227.3596" x2="4329.189" y2="3247.9595" gradientTransform="matrix(-1 0 0 1 7529.2593 0)">
								<stop  offset="0" style="stop-color:#4F52FF"/>
								<stop  offset="1" style="stop-color:#4042E2"/>
							</linearGradient>
							<path style="fill:url(#SVGID_00000001646805324356205640000017759617124529601155_);" d="M3208.709,3238.411
								c14.331-1.999,20.814-9.444,23.533-17.402c0.018,0.072,0.036,0.143,0.054,0.214c2.108,8.395-2.779,17.096-12.551,21.234
								c-11.811,5.001-24.724,5.854-34.75,5.441c-10.756-0.443-20.629-4.894-26.056-12.018l-0.081-0.107
								C3169.655,3241.115,3184.81,3241.744,3208.709,3238.411z"/>
							
								<linearGradient id="SVGID_00000079451889695618097130000015733739878878093495_" gradientUnits="userSpaceOnUse" x1="4297.0166" y1="3177.5811" x2="4405.52" y2="3177.5811" gradientTransform="matrix(-1 0 0 1 7529.2593 0)">
								<stop  offset="0" style="stop-color:#09005D"/>
								<stop  offset="1" style="stop-color:#1A0F91"/>
							</linearGradient>
							<path style="fill:url(#SVGID_00000079451889695618097130000015733739878878093495_);" d="M3141.143,3114.707h24.019
								c36.586-0.748,59.561,76.419,67.081,106.302c-2.719,7.958-9.202,15.403-23.533,17.402
								c-23.899,3.333-39.055,2.704-49.851-2.638c-19.766-26.011-29.565-64.105-34.276-86.338
								C3119.226,3124.15,3141.143,3114.707,3141.143,3114.707z"/>
						</g>
						
							<linearGradient id="SVGID_00000107560220660078330460000005828325511814786727_" gradientUnits="userSpaceOnUse" x1="4353.415" y1="3102.7747" x2="4418.3516" y2="3102.7747" gradientTransform="matrix(-1 0 0 1 7529.2593 0)">
							<stop  offset="0" style="stop-color:#FEBBBA"/>
							<stop  offset="1" style="stop-color:#FF928E"/>
						</linearGradient>
						<path style="fill:url(#SVGID_00000107560220660078330460000005828325511814786727_);" d="M3162.075,3064.646l13.337,53.047
							c1.635,6.505-1.478,13.232-7.491,16.318c-7.461,3.829-17.966,7.853-27.62,6.688c-4.541-0.547-8.313-3.746-9.812-8.021
							l-19.581-55.811L3162.075,3064.646z"/>
					</g>
					
						<linearGradient id="SVGID_00000134930681511479234180000012959159726321527941_" gradientUnits="userSpaceOnUse" x1="4202.9976" y1="3292.6711" x2="5056.0435" y2="2327.5452" gradientTransform="matrix(-1 0 0 1 7529.2593 0)">
						<stop  offset="0" style="stop-color:#4F52FF"/>
						<stop  offset="1" style="stop-color:#4042E2"/>
					</linearGradient>
					<path style="fill:url(#SVGID_00000134930681511479234180000012959159726321527941_);" d="M3177.984,3079.979
						c-16.594,14.719-70.568,16.663-70.568,16.663c-194.423-466.634-273.955-532.926-273.955-532.926
						c28.073,176.129,4.527,566.057,4.527,566.057c-32.083,14.157-73.447,0-73.447,0c-2.605-288.346-46.926-539.813-99.282-738.063
						c131.406-2.954,201.286-47.921,224.104-65.969C2998.898,2502.336,3177.984,3079.979,3177.984,3079.979z"/>
					
						<linearGradient id="SVGID_00000003091324626735872940000007019701720142107802_" gradientUnits="userSpaceOnUse" x1="3289.814" y1="1276.9054" x2="2771.9136" y2="2016.7638">
						<stop  offset="0" style="stop-color:#FF928E"/>
						<stop  offset="1" style="stop-color:#FE7062"/>
					</linearGradient>
					<path style="fill:url(#SVGID_00000003091324626735872940000007019701720142107802_);" d="M2855.99,1789.111
						c24.872,124.064,15.958,346.115,10.103,447.398c-1.646,28.468,18.227,67.933,34.29,94.856c2.519,4.224,0.964,9.63-3.41,11.878
						c-26.893,13.822-117.998,56.658-223.588,61.987c-7.041,0.355-13.327-4.44-15.151-11.249
						c-78.324-292.452-169.297-479.33-169.297-479.33C2589.375,1754.261,2855.99,1789.111,2855.99,1789.111z"/>
					
						<linearGradient id="SVGID_00000146483685969721750660000006765852891663556280_" gradientUnits="userSpaceOnUse" x1="2845.3391" y1="2452.3049" x2="3109.8926" y2="2189.9934">
						<stop  offset="0" style="stop-color:#4F52FF"/>
						<stop  offset="1" style="stop-color:#4042E2"/>
					</linearGradient>
					<path style="fill:url(#SVGID_00000146483685969721750660000006765852891663556280_);" d="M2820.194,2552.668
						c1.103,0,2.222-0.298,3.235-0.912c2.934-1.794,3.864-5.619,2.08-8.55c-1.046-1.721-26.196-42.37-77.088-66.924
						c-3.092-1.484-6.816-0.201-8.315,2.9c-1.492,3.096-0.195,6.823,2.903,8.313c47.445,22.893,71.625,61.798,71.865,62.187
						C2816.047,2551.604,2818.096,2552.668,2820.194,2552.668z"/>
					<g>
						
							<linearGradient id="SVGID_00000068635095494920449430000003315681402470030015_" gradientUnits="userSpaceOnUse" x1="4650.9199" y1="2156.2375" x2="4419.7554" y2="2360.9387" gradientTransform="matrix(-1 0 0 1 7529.2593 0)">
							<stop  offset="0" style="stop-color:#FEBBBA"/>
							<stop  offset="1" style="stop-color:#FF928E"/>
						</linearGradient>
						<path style="fill:url(#SVGID_00000068635095494920449430000003315681402470030015_);" d="M3012.001,2145.172
							c-7.99,57.795-31.594,120.835-78.814,187.798l-17.95-14.634c0,0,20.721-84.071,8.942-179.484
							C2953.307,2133.17,2987.708,2139.028,3012.001,2145.172z"/>
						
							<linearGradient id="SVGID_00000065050940272123324730000006409460621330772374_" gradientUnits="userSpaceOnUse" x1="3375.2825" y1="1336.7314" x2="2857.3833" y2="2076.5879">
							<stop  offset="0" style="stop-color:#FF928E"/>
							<stop  offset="1" style="stop-color:#FE7062"/>
						</linearGradient>
						<path style="fill:url(#SVGID_00000065050940272123324730000006409460621330772374_);" d="M2828.209,1942.19l27.781-153.078
							c0,0,185.616,141.882,156.011,356.061c-24.292-6.144-58.694-12.002-87.822-6.32
							C2915.692,2070.121,2890.345,1995.506,2828.209,1942.19z"/>
					</g>
					<g>
						
							<linearGradient id="SVGID_00000023989219614442639420000014929995015639781297_" gradientUnits="userSpaceOnUse" x1="3122.8323" y1="1160.0166" x2="2604.9338" y2="1899.8719">
							<stop  offset="0" style="stop-color:#FF928E"/>
							<stop  offset="1" style="stop-color:#FE7062"/>
						</linearGradient>
						<path style="fill:url(#SVGID_00000023989219614442639420000014929995015639781297_);" d="M2488.937,1914.651l71.647,154.304
							c-11.585,93.158-61.629,133.438-115.588,148.887c-3.365-42.457-14.1-76.758-24.062-100.485
							C2489.88,2046.174,2488.937,1914.651,2488.937,1914.651z"/>
						
							<linearGradient id="SVGID_00000066489542115307309700000010106939534042443917_" gradientUnits="userSpaceOnUse" x1="5084.2627" y1="2175.6001" x2="5266.314" y2="2175.6001" gradientTransform="matrix(-1 0 0 1 7529.2593 0)">
							<stop  offset="0" style="stop-color:#FEBBBA"/>
							<stop  offset="1" style="stop-color:#FF928E"/>
						</linearGradient>
						<path style="fill:url(#SVGID_00000066489542115307309700000010106939534042443917_);" d="M2420.935,2117.358
							c9.962,23.726,20.697,58.028,24.062,100.485c-143.963,55.856-182.051-52.469-182.051-52.469l26.606-4.694
							C2349.635,2167.01,2391.605,2147.64,2420.935,2117.358z"/>
					</g>
					
						<linearGradient id="SVGID_00000008842648038332056240000018211633840436914062_" gradientUnits="userSpaceOnUse" x1="4907.3052" y1="1689.0946" x2="4905.3169" y2="2029.0604" gradientTransform="matrix(-1 0 0 1 7529.2593 0)">
						<stop  offset="0" style="stop-color:#FEBBBA"/>
						<stop  offset="1" style="stop-color:#FF928E"/>
					</linearGradient>
					<path style="fill:url(#SVGID_00000008842648038332056240000018211633840436914062_);" d="M2554.948,1724.152l34.59,127.154
						c3.886,14.284,19.336,21.955,33.082,16.46c14.833-5.93,33.653-14.024,49.854-22.771c17.294-9.336,22.704-31.582,11.757-47.904
						l-71.913-107.227L2554.948,1724.152z"/>
				</g>
				
					<linearGradient id="SVGID_00000000201786602385286860000013846069055704847779_" gradientUnits="userSpaceOnUse" x1="4401.2964" y1="2308.96" x2="5354.6167" y2="2308.96" gradientTransform="matrix(-1 0 0 1 7529.2593 0)">
					<stop  offset="0" style="stop-color:#09005D"/>
					<stop  offset="1" style="stop-color:#1A0F91"/>
				</linearGradient>
				<path style="fill:url(#SVGID_00000000201786602385286860000013846069055704847779_);" d="M2196.964,2080.285l886.323,322.586
					c37.173,13.529,54.942,55.856,38.566,91.865l-2.689,5.913c-14.49,31.86-52.146,45.834-83.912,31.139l-860.608-398.122
					L2196.964,2080.285z"/>
				<ellipse style="opacity:0.33;fill:#FFFFFF;" cx="1789.574" cy="1886.24" rx="437.53" ry="429.637"/>
				
					<linearGradient id="SVGID_00000112619218922153964050000004431865560555999167_" gradientUnits="userSpaceOnUse" x1="5252.832" y1="1886.2405" x2="6226.5391" y2="1886.2405" gradientTransform="matrix(-1 0 0 1 7529.2593 0)">
					<stop  offset="0" style="stop-color:#09005D"/>
					<stop  offset="1" style="stop-color:#1A0F91"/>
				</linearGradient>
				<path style="fill:url(#SVGID_00000112619218922153964050000004431865560555999167_);" d="M1302.72,1886.24
					c0,264.033,217.971,478.072,486.854,478.072c268.882,0,486.853-214.039,486.853-478.072c0-264.03-217.971-478.07-486.853-478.07
					C1520.692,1408.169,1302.72,1622.21,1302.72,1886.24z M1374.237,1886.24c0-225.245,185.953-407.844,415.338-407.844
					c229.383,0,415.337,182.599,415.337,407.844c0,225.247-185.953,407.844-415.337,407.844
					C1560.189,2294.084,1374.237,2111.487,1374.237,1886.24z"/>
				<path style="opacity:0.67;fill:#FFFFFF;" d="M2239.414,1946.087c-0.166,0-0.332-0.009-0.498-0.031
					c-2.135-0.274-3.641-2.224-3.368-4.354c1.417-11.086,2.421-22.431,2.982-33.728c0.108-2.148,2.063-3.834,4.081-3.695
					c2.148,0.108,3.803,1.933,3.695,4.081c-0.569,11.494-1.592,23.046-3.036,34.328
					C2243.019,1944.651,2241.342,1946.087,2239.414,1946.087z M2236.068,1812.405c-1.847,0-3.489-1.323-3.825-3.206
					c-5.422-30.225-14.113-59.971-25.835-88.407c0,0-0.004-0.013-0.009-0.018c-69.07-167.571-232.685-275.844-416.826-275.844
					c-85.877,0-169.351,23.853-241.403,68.98c-1.83,1.135-4.224,0.587-5.368-1.233c-1.139-1.825-0.588-4.224,1.233-5.368
					c73.294-45.903,158.198-70.164,245.538-70.164c187.298,0,353.734,110.17,424.019,280.647c0,0,0.004,0.009,0.009,0.013
					c11.933,28.956,20.785,59.244,26.301,90.021c0.381,2.117-1.027,4.139-3.144,4.516
					C2236.526,1812.387,2236.297,1812.405,2236.068,1812.405z"/>
				<g>
					
						<linearGradient id="SVGID_00000057149148329823836690000006724637320473477807_" gradientUnits="userSpaceOnUse" x1="4659.3394" y1="3818.8203" x2="4491.9922" y2="4040.2065" gradientTransform="matrix(-0.9897 -0.1428 -0.1428 0.9897 7668.314 -1480.9402)">
						<stop  offset="0" style="stop-color:#FEBBBA"/>
						<stop  offset="1" style="stop-color:#FF928E"/>
					</linearGradient>
					<path style="fill:url(#SVGID_00000057149148329823836690000006724637320473477807_);" d="M2479.275,1627.545
						c-0.315,2.183,28.85,145.103,28.85,145.103l81.25-18.387l-7.518-139.565
						C2581.858,1614.696,2484.549,1590.989,2479.275,1627.545z"/>
					
						<linearGradient id="SVGID_00000173153236120945259100000012415152082790746543_" gradientUnits="userSpaceOnUse" x1="4531.5337" y1="3872.2239" x2="4731.4321" y2="3872.2239" gradientTransform="matrix(-0.9897 -0.1428 -0.1428 0.9897 7668.314 -1480.9402)">
						<stop  offset="0" style="stop-color:#09005D"/>
						<stop  offset="1" style="stop-color:#1A0F91"/>
					</linearGradient>
					<path style="fill:url(#SVGID_00000173153236120945259100000012415152082790746543_);" d="M2563.583,1645.796l9.711,73.16
						c0.125,0.938,0.123,1.865-0.011,2.802c-0.819,5.735-5.085,25.257-24.793,19.675c-17.884-5.066-34.279-9.423-45.604-5.958
						c-5.085,1.555-8.154,6.706-7.089,11.916c2.653,12.985,9.173,42.134,18.702,66.594c1.933,4.963,7.369,7.57,12.483,6.079
						c15.41-4.493,47.645-14.877,71.621-29.305c3.249-1.955,5.184-5.488,5.024-9.276c-0.779-18.47-2.939-74.612-1.121-90.349
						c1.707-14.771,19.835-23.62,27.712-26.794c2.583-1.04,4.607-3.075,5.638-5.661c3.647-9.14,8.676-30.29-17.978-38.958
						c-5.578-1.814-8.518-7.828-6.536-13.349c3.948-10.991,5.613-27.763-15.007-37.005c-20.958-9.392-36.611,1.781-45.063,10.86
						c-3.417,3.672-8.901,4.231-13.141,1.552c-2.414-1.525-5.524-2.025-9.281,0.315c-5.063,3.154-11.767,1.004-14.38-4.358
						c-5.019-10.302-15.248-21.337-35.767-17.823c-36.409,6.235-40.533,46.582-30.928,70.225s48.695,14.638,68.305,2.719
						c14.91-9.062,34.251,0.436,42.665,5.51C2561.41,1639.973,2563.174,1642.711,2563.583,1645.796z"/>
					
						<linearGradient id="SVGID_00000038395816529122087270000010199954554686440855_" gradientUnits="userSpaceOnUse" x1="4414.2412" y1="3994.1414" x2="4548.4678" y2="3856.4287" gradientTransform="matrix(-0.9897 -0.1428 -0.1428 0.9897 7668.314 -1480.9402)">
						<stop  offset="0" style="stop-color:#FEBBBA"/>
						<stop  offset="1" style="stop-color:#FF928E"/>
					</linearGradient>
					<path style="fill:url(#SVGID_00000038395816529122087270000010199954554686440855_);" d="M2605.776,1717.805
						c0,0-14.969-41.915,0.409-52.18c15.379-10.265,38.155-4.935,33.14,25.428
						C2633.088,1728.823,2605.776,1717.805,2605.776,1717.805z"/>
				</g>
				
					<linearGradient id="SVGID_00000091707807505730179280000012498575129504988347_" gradientUnits="userSpaceOnUse" x1="4742.2065" y1="2259.3264" x2="4511.0439" y2="2464.0261" gradientTransform="matrix(-1 0 0 1 7529.2593 0)">
					<stop  offset="0" style="stop-color:#FEBBBA"/>
					<stop  offset="1" style="stop-color:#FF928E"/>
				</linearGradient>
				<path style="fill:url(#SVGID_00000091707807505730179280000012498575129504988347_);" d="M2922.639,2315.788l-83.789-6.829
					l-36.287,33.45c0,0,8.585,11.867,35.424,5.046c26.839-6.821,63.604-8.495,63.604-8.495s37.051,16.704,37.503-14.55
					L2922.639,2315.788z"/>
				
					<linearGradient id="SVGID_00000116948258960773169980000011156254837397137837_" gradientUnits="userSpaceOnUse" x1="5246.9727" y1="2154.2192" x2="5312.1665" y2="2154.2192" gradientTransform="matrix(-1 0 0 1 7529.2593 0)">
					<stop  offset="0" style="stop-color:#FEBBBA"/>
					<stop  offset="1" style="stop-color:#FF928E"/>
				</linearGradient>
				<path style="fill:url(#SVGID_00000116948258960773169980000011156254837397137837_);" d="M2273.618,2185.193
					c-7.247,5.662-32.073-6.158-47.264-14.329c-7.403-3.982-10.989-12.64-8.448-20.653c3.656-11.529,9.747-26.411,17.253-28.287
					C2247.612,2118.811,2303.478,2161.865,2273.618,2185.193z"/>
				<path style="opacity:0.67;fill:#FFFFFF;" d="M3065.801,2520.012c-1.614,0-3.121-1.009-3.677-2.619
					c-0.704-2.036,0.372-4.251,2.404-4.951c24.75-8.556,37.705-22.355,38.512-41.019c0.821-18.938-11.166-36.548-29.826-43.822
					l-106.421-41.495c-2.004-0.78-2.996-3.04-2.215-5.041c0.776-2.004,3.041-2.991,5.041-2.215l106.421,41.495
					c21.768,8.489,35.741,29.149,34.777,51.414c-0.659,15.243-8.781,35.956-43.741,48.038
					C3066.653,2519.945,3066.222,2520.012,3065.801,2520.012z"/>
				<path style="opacity:0.67;fill:#FFFFFF;" d="M2935.415,2373.581c-0.471,0-0.951-0.085-1.413-0.265l-13.794-5.377
					c-2.005-0.78-2.996-3.04-2.215-5.041c0.78-2.005,3.045-2.991,5.041-2.215l13.794,5.377c2.005,0.78,2.996,3.041,2.215,5.041
					C2938.442,2372.639,2936.971,2373.581,2935.415,2373.581z"/>
			</g>
		</g>
		<g>
			
				<linearGradient id="SVGID_00000102506691640687943740000007335197056133950383_" gradientUnits="userSpaceOnUse" x1="2075.251" y1="204.9453" x2="1503.5438" y2="1328.1804">
				<stop  offset="0" style="stop-color:#FF928E"/>
				<stop  offset="1" style="stop-color:#FE7062"/>
			</linearGradient>
			<path style="fill:url(#SVGID_00000102506691640687943740000007335197056133950383_);" d="M2177.503,702.899l-1128.645-60.784
				c-92.964-5.006-168.723,63.43-168.723,152.884v618.432c0,89.453,75.759,163.836,168.723,166.126l368.988,9.09l167.991,198.522
				c11.954,14.127,33.682,14.29,45.847,0.343l165.311-189.524l380.508,9.374c86.049,2.12,155.455-65.42,155.455-150.844V865.945
				C2332.958,780.521,2263.552,707.533,2177.503,702.899z"/>
			<path style="fill:#FFFFFF;" d="M1994.344,1070.581c-6.238-117.052-85.782-215.395-184.846-227.845
				c-78.789-9.901-148.895,34.635-186.214,106.691c-37.407-75.6-108.163-127.147-188.442-124.959
				c-102.097,2.783-185.029,95.484-191.568,214.773c-4.322,78.823,24.283,151.269,71.244,200.108l288.198,234.739
				c12.449,10.139,28.682,10.596,41.109,1.168l282.29-214.174C1971.156,1216.553,1998.464,1147.876,1994.344,1070.581z"/>
		</g>
	</g>
</g>
</svg>
