<svg version="1.1" id="Layer_1" xmlns="http://www.w3.org/2000/svg" xmlns:xlink="http://www.w3.org/1999/xlink" x="0px" y="0px"
	 width="100%" viewBox="0 0 442 442" enable-background="new 0 0 442 442" xml:space="preserve">
<path fill="#000000" opacity="1.000000" stroke="none" 
	d="
M1.000000,215.000000 
	C1.000000,143.333359 1.000000,72.166710 1.000000,1.000048 
	C148.333267,1.000032 295.666534,1.000032 442.999878,1.000016 
	C442.999908,148.333221 442.999908,295.666443 442.999939,442.999756 
	C295.666809,442.999817 148.333633,442.999817 1.000229,442.999908 
	C1.000000,367.166656 1.000000,291.333344 1.000000,215.000000 
M245.435120,50.642437 
	C245.435120,50.642437 245.295609,50.534542 244.997299,50.217617 
	C244.997299,50.217617 244.702576,49.897358 244.569305,49.678516 
	C244.464462,49.539600 244.333389,49.432892 243.519592,49.157383 
	C243.299774,49.093739 243.079956,49.030094 242.662125,48.730854 
	C242.521545,48.579487 242.358521,48.458347 241.547928,47.999271 
	C238.637878,46.480171 235.820312,44.716682 232.771942,43.563087 
	C231.564423,43.106125 229.844101,44.004192 228.357254,44.285309 
	C228.650452,45.652393 228.522415,47.361904 229.308212,48.328548 
	C233.144424,53.047657 237.731949,56.662891 244.786453,57.039135 
	C251.550903,61.172981 258.315338,65.306824 265.938049,69.965164 
	C263.701813,71.267883 262.887329,71.742371 261.176880,72.138092 
	C258.802521,72.072578 256.428162,72.007057 253.578018,71.430641 
	C247.376312,70.124046 241.197388,68.679070 234.949936,67.650352 
	C233.937225,67.483589 232.363678,68.978493 231.569321,70.080215 
	C231.247055,70.527153 232.065979,72.240517 232.791611,72.928131 
	C237.907928,77.776505 248.338486,78.231735 254.753983,74.089462 
	C257.198700,73.936562 259.643433,73.783653 262.794769,73.642181 
	C263.265900,73.640701 263.737061,73.639221 264.517365,73.465820 
	C264.714294,73.329536 264.896362,73.175636 265.700714,73.013062 
	C266.125549,73.014664 266.550354,73.016258 267.645935,73.268532 
	C269.046387,73.477776 270.446808,73.687012 272.325317,74.170113 
	C274.179077,74.828056 276.032806,75.485992 278.175171,76.755173 
	C279.772369,79.203308 281.369537,81.651436 283.228180,84.717560 
	C285.955902,88.325645 288.683624,91.933731 291.161224,95.826515 
	C291.161224,95.826515 290.916840,96.116135 290.219116,95.910179 
	C285.832764,94.261711 281.446442,92.613243 276.510895,90.501991 
	C269.691864,89.086662 262.872864,87.671333 255.180710,86.166771 
	C251.790695,85.840385 248.400681,85.514000 244.390182,85.023842 
	C243.611664,84.676147 242.833160,84.328461 241.439407,83.577049 
	C235.968826,82.667145 230.428635,80.716957 225.043060,81.077370 
	C215.635468,81.706940 206.322983,83.757607 196.405792,85.387924 
	C196.045807,85.547531 195.685806,85.707138 195.002640,85.791885 
	C194.668808,85.775787 194.365311,85.864830 193.430817,86.328888 
	C193.207718,86.412018 192.984604,86.495148 192.552994,86.666260 
	C192.552994,86.666260 192.197968,86.954544 191.682480,87.187843 
	C191.511322,87.267059 191.340149,87.346283 190.976334,87.585732 
	C190.817291,87.810318 190.772537,88.056198 190.507812,88.463783 
	C190.292053,88.578957 190.103088,88.728073 189.682907,89.193924 
	C190.145920,90.036133 190.608932,90.878334 191.837570,91.928703 
	C209.977249,95.918961 227.875641,96.783867 245.777466,87.826599 
	C249.203094,87.799156 252.628723,87.771706 256.812897,87.961227 
	C262.928223,89.300377 269.043518,90.639519 275.579193,92.284203 
	C276.163086,92.929482 276.746948,93.574760 277.537018,94.447914 
	C271.201752,96.587082 265.793335,95.622444 260.440796,92.772865 
	C258.726654,91.860275 256.507477,91.896263 254.519363,91.498245 
	C254.381577,92.111961 254.243774,92.725685 254.105988,93.339401 
	C256.312134,94.409164 258.518250,95.478928 261.462708,96.906693 
	C259.173279,98.466537 257.611298,99.530769 255.282898,100.514526 
	C251.187195,100.111633 247.096436,99.544174 242.992340,99.421387 
	C241.964508,99.390633 240.893921,100.789635 239.842987,101.531548 
	C240.915741,102.042030 241.946136,102.821487 243.071381,102.998680 
	C244.676910,103.251518 246.351944,103.063004 247.997284,103.063004 
	C247.593018,104.279747 247.096497,104.673477 246.532730,104.899277 
	C242.243027,106.617371 237.872147,108.157280 233.694763,110.112144 
	C232.782272,110.539146 232.545944,112.411049 231.998215,113.617516 
	C233.412613,113.516693 234.996490,113.783096 236.200928,113.227295 
	C237.921814,112.433174 239.364975,111.037239 241.146576,110.157867 
	C241.146576,110.157867 241.369263,110.414970 241.102158,111.053436 
	C240.387589,113.019844 239.673019,114.986244 238.967819,117.000793 
	C238.967819,117.000793 238.995575,116.965660 238.488052,117.138229 
	C238.041351,117.419174 237.594650,117.700127 237.012680,118.073799 
	C237.012680,118.073799 236.891724,118.184555 236.609589,118.393288 
	C236.428314,118.543816 236.267776,118.713913 236.043274,118.994133 
	C236.043274,118.994133 235.982697,119.102303 235.496170,119.486794 
	C235.541092,120.817299 235.585999,122.147804 235.630905,123.478310 
	C237.007950,123.305077 238.384979,123.131836 240.107681,122.478333 
	C240.408478,120.990967 240.709274,119.503593 241.445633,117.517593 
	C242.465149,115.813423 243.484680,114.109253 244.504211,112.405083 
	C245.549789,114.682953 245.366074,116.589317 245.616608,118.436783 
	C245.774460,119.600723 246.376526,120.880814 247.190460,121.700638 
	C247.564774,122.077682 249.468277,121.755981 249.726151,121.258003 
	C250.256989,120.232941 250.262909,118.875244 250.251968,117.656517 
	C250.246643,117.062706 249.686768,116.486786 249.431320,115.880280 
	C247.264084,110.734238 248.030960,108.267830 252.769409,105.024345 
	C253.856262,104.280380 254.919067,103.501312 256.393738,103.412933 
	C256.639923,106.357155 256.718628,109.329109 257.199524,112.234482 
	C257.459137,113.802910 258.406555,115.257492 259.043701,116.763428 
	C259.979065,115.495407 260.970520,114.264198 261.833710,112.948814 
	C262.664917,111.682167 263.059082,109.662544 264.182556,109.148903 
	C266.680359,108.006927 266.876434,106.608376 266.762146,104.081276 
	C266.680511,102.276733 268.370483,98.834496 269.389893,98.788620 
	C276.391785,98.473549 283.608765,97.954308 290.387634,99.325058 
	C295.348816,100.328255 299.820892,103.992378 304.340485,106.749939 
	C305.347626,107.364403 305.640228,109.149940 305.546967,110.043106 
	C303.872711,109.335617 302.259247,108.326103 300.513306,107.974724 
	C294.130341,106.690086 287.778534,103.740280 281.186523,106.834404 
	C280.006104,107.388474 278.730408,108.655533 278.432556,109.830170 
	C278.254059,110.534081 279.716125,111.972366 280.735535,112.607742 
	C285.744141,115.729485 291.189240,116.453514 296.951874,115.231522 
	C300.982910,114.376732 305.042572,113.656853 309.705658,113.211281 
	C312.930664,114.394836 316.155640,115.578392 319.791046,117.266151 
	C323.880615,121.077232 327.970215,124.888313 332.476776,129.253494 
	C335.857574,133.927521 339.238342,138.601547 342.619110,143.275589 
	C342.204865,143.732758 341.790649,144.189926 341.376404,144.647095 
	C338.267303,143.731216 335.158234,142.815353 332.014954,141.951920 
	C332.014954,141.951920 332.048523,142.003952 331.734436,141.629807 
	C331.509247,141.392914 331.261505,141.182602 330.992828,141.007263 
	C330.992828,141.007263 331.001251,141.009003 330.706635,140.647583 
	C330.496033,140.417206 330.259888,140.216873 329.985901,140.009369 
	C329.985901,140.009369 329.947601,140.000763 329.653107,139.672211 
	C329.450378,139.459259 329.235291,139.259598 328.980988,139.028458 
	C328.980988,139.028458 328.936035,139.001831 328.663239,138.653549 
	C328.465912,138.432526 328.245636,138.237411 327.495056,137.616180 
	C323.662018,135.924011 319.828979,134.231857 315.141815,132.398468 
	C313.407410,132.326859 311.672974,132.255249 309.232910,132.162445 
	C307.946655,132.710434 306.660400,133.258408 305.374176,133.806381 
	C305.819519,134.800980 306.006042,136.089340 306.750122,136.744858 
	C314.377625,143.464554 322.524292,148.528046 333.756287,144.575745 
	C344.205658,146.248474 349.634949,153.211319 352.763153,162.603973 
	C352.812988,162.753510 352.943085,162.876297 353.197327,163.590302 
	C353.749756,164.652603 354.302185,165.714920 354.742889,167.061157 
	C354.693817,167.371994 354.773651,167.646225 355.142273,168.476486 
	C355.193817,168.674500 355.245392,168.872528 355.451385,169.454147 
	C355.587891,169.698105 355.758362,169.915405 356.117188,170.852768 
	C358.364594,178.970062 360.611969,187.087357 362.859344,195.204651 
	C363.356079,195.137390 363.852783,195.070114 364.349487,195.002838 
	C364.349487,193.577438 364.642426,192.077881 364.303284,190.738358 
	C361.521271,179.750504 360.232788,168.642441 360.900330,157.294388 
	C361.123566,153.499268 360.780060,149.670792 360.719727,145.152756 
	C361.794373,141.638840 362.571533,137.996078 364.023071,134.645416 
	C365.639496,130.914093 367.869568,127.448593 370.373718,123.509941 
	C370.884491,123.108238 371.395264,122.706535 372.277252,121.832100 
	C371.914093,120.275757 371.550903,118.719421 371.187714,117.163086 
	C370.230835,117.804626 369.273956,118.446175 368.195923,119.225304 
	C368.195923,119.225304 368.098114,119.380333 367.981628,119.574249 
	C367.889923,119.804039 367.869720,120.039940 367.776947,120.684502 
	C367.705078,120.958977 367.663544,121.237961 367.415222,122.221886 
	C365.629211,125.744148 363.843201,129.266403 362.057190,132.788666 
	C361.327789,132.565216 360.598389,132.341751 359.868958,132.118286 
	C360.190674,128.811325 360.574402,125.508705 360.806763,122.195473 
	C360.915924,120.638855 360.838654,119.044350 360.583252,117.510757 
	C360.539276,117.246628 358.575348,116.952667 358.516510,117.094597 
	C357.917084,118.540565 357.183380,120.064766 357.142700,121.584633 
	C356.989502,127.306030 357.081238,133.033981 357.081238,138.759491 
	C356.590210,138.813477 356.099182,138.867477 355.608154,138.921463 
	C353.269196,134.043503 351.071472,129.157455 351.879120,123.335716 
	C352.058350,122.043915 351.700562,120.559265 351.160675,119.356049 
	C350.992371,118.980927 348.828796,118.881989 348.588623,119.274536 
	C347.874542,120.441750 346.984344,122.156319 347.364838,123.231796 
	C349.832428,130.206848 352.619385,137.068909 355.396820,144.736420 
	C356.925598,151.502304 359.292450,158.196564 357.418243,166.036407 
	C356.378571,164.212158 355.730988,163.075867 354.906097,161.240372 
	C349.264374,150.496475 343.622650,139.752563 337.820160,128.511612 
	C337.190826,127.003967 336.561493,125.496323 335.854370,123.375214 
	C335.561737,122.612427 335.269104,121.849640 334.913879,120.283310 
	C334.212311,117.542229 333.510742,114.801147 332.804749,111.288338 
	C332.765900,110.517273 332.727051,109.746208 332.697906,108.266006 
	C332.638550,107.796387 332.579224,107.326767 332.633606,106.115845 
	C332.674255,105.120903 332.714935,104.125954 333.079041,102.456696 
	C336.031494,92.952278 338.983978,83.447853 342.578308,73.648811 
	C342.791901,73.549812 343.005524,73.450813 343.302032,73.349167 
	C343.302032,73.349167 343.359924,73.205063 343.787964,72.543579 
	C344.785492,67.738754 346.190247,62.966610 346.579712,58.112995 
	C346.735016,56.177441 344.647156,54.061893 343.580414,52.028271 
	C342.496460,53.904907 341.387451,55.767849 340.348114,57.668896 
	C340.119781,58.086567 340.139130,58.639664 339.805725,59.456596 
	C339.720520,59.834000 339.635284,60.211403 339.414581,61.413311 
	C339.340637,61.965427 339.266693,62.517540 338.866425,63.697838 
	C338.947540,65.729256 339.028687,67.760681 339.165466,70.551506 
	C339.205200,71.057541 339.244965,71.563576 339.185303,72.938705 
	C339.543091,81.429535 335.697510,88.632706 332.071564,95.067070 
	C331.616302,89.426369 331.161041,83.785667 330.738373,77.454521 
	C330.767181,76.994652 330.795990,76.534782 331.116730,75.500046 
	C332.168610,64.941399 328.879089,55.678925 323.716278,46.975731 
	C323.126617,47.026497 322.536926,47.077259 321.947235,47.128025 
	C321.628082,48.765461 321.308929,50.402897 320.735168,52.755287 
	C318.401245,63.966461 319.957733,74.267014 327.928528,83.943008 
	C328.611786,88.966782 329.295074,93.990555 330.049255,99.887848 
	C329.987640,102.217560 329.926056,104.547272 329.459930,106.865929 
	C329.459930,106.865929 329.056946,106.833191 328.716125,106.257294 
	C323.844147,98.445091 318.972168,90.632889 313.977783,82.091751 
	C311.342102,77.948288 308.809570,73.732338 305.988495,69.719200 
	C305.384613,68.860130 303.734985,68.736198 302.567108,68.273613 
	C302.162750,69.607948 301.196289,71.060402 301.447723,72.256905 
	C302.798584,78.684708 305.732788,84.119446 312.423035,87.590294 
	C317.600098,94.749947 322.777161,101.909607 328.114685,109.724007 
	C328.925842,111.063934 329.736969,112.403862 330.670807,114.450638 
	C331.792633,118.304016 332.914429,122.157394 333.385651,126.025238 
	C332.958832,125.948257 332.531982,125.871269 331.786377,125.226059 
	C328.148163,121.886452 324.509979,118.546844 320.422791,114.899757 
	C319.969421,114.601082 319.516052,114.302414 318.760406,113.652824 
	C318.549164,113.425446 318.308411,113.235435 317.943817,113.005005 
	C317.943817,113.005005 317.841675,112.937675 317.683838,112.793755 
	C317.683838,112.793755 317.336121,112.572990 316.701904,112.170860 
	C310.070648,106.951103 303.007446,102.185692 296.917999,96.396049 
	C289.384613,89.233551 288.668854,80.259224 294.219360,71.545799 
	C297.047272,67.106400 300.577423,63.114315 304.400665,58.593540 
	C309.356964,54.715981 311.254303,48.139847 308.800171,41.707161 
	C308.138062,39.971706 306.160980,38.737911 304.787506,37.273838 
	C303.484558,38.608868 301.345551,39.773075 301.031525,41.310150 
	C299.982544,46.444191 299.587036,51.711731 298.594269,57.540737 
	C295.751251,62.638824 292.908234,67.736908 290.065216,72.834991 
	C289.409393,72.504539 288.753540,72.174080 288.097687,71.843628 
	C289.657684,68.558388 291.254303,65.289856 292.762756,61.981102 
	C293.557373,60.238163 294.198029,58.425037 294.908234,56.643608 
	C292.191589,55.633606 289.513184,54.430939 286.706604,53.874096 
	C286.380829,53.809456 284.593964,57.399296 284.769348,59.167393 
	C285.487610,66.407776 286.734894,73.594574 287.705933,80.812065 
	C287.865082,81.994934 287.615387,83.232796 287.496918,85.597710 
	C285.825775,83.798851 284.977295,82.885506 283.763306,81.366226 
	C282.176147,78.258766 280.588959,75.151306 279.014465,72.008141 
	C279.014465,72.008141 278.978271,71.996887 278.904388,71.370064 
	C278.582825,70.603363 278.261261,69.836662 277.850861,68.491669 
	C277.820221,68.299072 277.789581,68.106468 277.718262,67.331436 
	C277.477875,66.599167 277.237488,65.866898 276.965973,64.228699 
	C276.908081,62.115376 276.850189,60.002052 276.610443,57.423367 
	C276.427094,57.139889 276.243713,56.856411 276.148285,56.150951 
	C276.181427,55.862148 276.164001,55.576431 276.147827,54.994705 
	C276.154541,54.695786 276.086151,54.414944 275.834076,53.337547 
	C273.700989,47.462898 271.770294,41.500690 269.293243,35.774841 
	C268.669891,34.333912 266.296417,33.650105 264.727203,32.618359 
	C263.929901,34.459633 262.500824,36.292885 262.477295,38.143986 
	C262.438019,41.238342 263.285370,44.345894 263.779327,47.444733 
	C265.251312,56.678799 271.090210,63.579266 276.401520,71.356812 
	C276.529633,71.882515 276.657715,72.408218 276.107269,72.799164 
	C271.574066,69.515160 267.040833,66.231148 262.269409,62.321724 
	C257.140625,54.636032 258.080963,46.450127 260.001404,38.059155 
	C260.461487,36.048935 259.712830,33.755428 259.397583,31.610205 
	C259.389130,31.552679 257.335754,31.582026 257.298737,31.774906 
	C256.858124,34.069767 256.619537,36.403416 255.931763,39.087959 
	C255.801819,39.210594 255.671875,39.333233 254.871704,39.407089 
	C248.923859,39.561527 251.260483,42.552372 252.440262,45.662525 
	C252.294876,45.779259 252.149490,45.895996 251.344116,45.824810 
	C249.259491,42.919659 247.297073,39.912506 245.011810,37.174843 
	C244.370850,36.406990 242.780121,36.431965 241.625046,36.093269 
	C241.583771,37.128895 241.082993,38.539906 241.573868,39.140781 
	C245.518402,43.969116 249.649979,48.644661 254.046906,53.939369 
	C255.369843,55.964115 256.692780,57.988861 257.291901,60.007858 
	C253.808777,57.471600 250.325653,54.935341 246.778870,52.135769 
	C246.778870,52.135769 246.692825,51.878899 246.548737,51.645195 
	C246.435303,51.498837 246.297745,51.380520 245.810532,51.005383 
	C245.810532,51.005383 245.487701,50.717468 245.435120,50.642437 
M108.907127,334.103699 
	C108.907127,334.103699 108.772034,333.983795 108.561592,333.701172 
	C108.406952,333.522156 108.229324,333.369965 107.666771,332.869110 
	C107.416824,332.627502 107.166878,332.385925 106.656792,331.467377 
	C104.104942,326.291718 101.553093,321.116058 98.816284,315.249969 
	C96.637070,310.067383 93.213516,305.105560 96.160706,299.697845 
	C100.796547,304.488922 105.432396,309.279968 110.440720,314.474945 
	C110.986488,314.952698 111.532265,315.430420 112.433846,316.479095 
	C115.727180,320.958099 119.432983,325.197510 122.209030,329.976959 
	C125.646141,335.894653 124.897285,342.067780 120.221169,347.071716 
	C116.187088,351.388580 111.488541,355.084564 106.612740,359.589355 
	C105.874321,363.561188 104.928673,367.513489 104.550819,371.519318 
	C104.462166,372.459167 106.134102,374.065125 107.297371,374.447113 
	C108.072350,374.701630 109.620842,373.532379 110.386406,372.629883 
	C111.203125,371.667053 111.506012,370.268372 112.404922,368.439575 
	C112.777153,366.305969 113.149384,364.172363 113.703522,361.382111 
	C113.816505,360.942139 113.929489,360.502197 114.348427,359.786041 
	C114.546021,359.591187 114.698883,359.365997 114.885139,358.605347 
	C114.903389,358.435944 114.921638,358.266571 115.370132,357.685059 
	C115.921349,357.117279 116.472557,356.549500 117.196472,356.729492 
	C117.122742,361.202332 120.633179,362.332855 123.854622,362.946411 
	C124.423470,363.054749 125.802208,358.988983 126.768456,356.833557 
	C126.889336,356.563904 126.773201,356.187988 126.816978,355.287659 
	C126.803329,354.904694 126.789673,354.521698 126.791214,353.418579 
	C126.772949,352.939423 126.754692,352.460236 126.888580,351.226593 
	C126.888580,347.233032 126.888580,343.239502 126.888580,338.147186 
	C131.545792,343.862701 133.402679,351.301086 132.784683,358.227173 
	C132.584976,360.465240 132.939392,362.752747 133.078690,365.847107 
	C133.109863,367.233276 133.141052,368.619476 133.177307,370.648376 
	C133.455795,371.448944 133.734283,372.249512 134.108688,373.830292 
	C134.485794,375.426605 134.509705,377.242035 135.329605,378.563660 
	C136.349289,380.207306 138.026581,381.442963 139.419846,382.854828 
	C140.294434,381.238800 141.169037,379.622742 142.381760,377.332825 
	C142.244095,374.886322 142.106415,372.439789 141.794968,369.575043 
	C141.794968,369.575043 141.631332,369.152679 141.721909,368.347046 
	C141.116486,365.918915 140.511078,363.490814 139.760803,360.566498 
	C139.723541,360.398285 139.686264,360.230072 139.495850,359.724548 
	C139.365982,359.512054 139.203140,359.328888 138.783981,358.605560 
	C138.723557,358.410858 138.663132,358.216125 138.438599,357.690430 
	C138.309509,357.477692 138.152512,357.288055 137.912521,357.097870 
	C137.912521,357.097870 137.858414,357.072113 137.703934,356.482635 
	C137.167175,355.638214 136.630432,354.793793 136.065811,353.923462 
	C136.065811,353.923462 136.029755,353.935883 135.949203,353.366516 
	C135.949203,352.358459 135.949203,351.350403 135.949203,349.841248 
	C141.771011,352.526825 143.723450,357.399414 146.108032,362.727020 
	C146.485077,363.832275 146.862106,364.937561 147.178085,366.799408 
	C147.201157,367.561432 147.224228,368.323425 147.012512,369.798676 
	C145.453735,374.571808 142.960968,379.198303 143.896210,384.363098 
	C144.583939,384.476379 145.271667,384.589661 145.959412,384.702911 
	C146.329391,381.857513 146.699371,379.012085 147.541061,376.518127 
	C148.518188,377.178223 149.495316,377.838348 150.472427,378.498474 
	C150.828064,377.472076 151.337967,376.468933 151.497101,375.412933 
	C151.665253,374.297058 151.499191,373.130798 151.900650,372.847137 
	C155.820160,382.521820 155.820160,382.521820 160.236328,382.518951 
	C156.978409,377.153992 153.957397,372.179199 150.805008,366.596741 
	C150.759933,366.394440 150.714874,366.192169 151.241623,365.753418 
	C152.918213,367.115417 154.608917,368.460480 156.268372,369.843018 
	C159.529938,372.560364 162.664856,375.450256 166.099503,377.925537 
	C167.000427,378.574829 169.348068,378.494507 170.046371,377.782776 
	C170.726166,377.090057 170.722626,374.541016 170.015381,373.878326 
	C166.944733,371.001251 163.547958,368.462280 160.191132,365.903473 
	C157.095093,363.543427 153.898788,361.314941 150.451080,358.463470 
	C148.781952,356.629517 147.112823,354.795563 145.443695,352.961578 
	C145.645493,352.579285 145.847275,352.196991 146.049072,351.814697 
	C148.396057,352.175537 150.743042,352.536407 153.075912,352.952209 
	C153.075912,352.952209 153.092667,353.006470 153.319061,353.310547 
	C153.485260,353.505096 153.683884,353.657318 154.562698,354.100464 
	C156.834366,355.107666 159.021744,356.565338 161.398666,357.010132 
	C164.497345,357.589966 169.025665,360.917358 170.542267,356.365692 
	C171.876221,352.362122 166.841827,351.375397 163.697556,349.812073 
	C163.697556,349.812073 163.429779,349.652039 162.450012,349.468933 
	C161.790009,349.366638 161.130005,349.264374 159.896957,348.821472 
	C154.507416,348.909302 149.050171,349.543457 143.752869,348.887085 
	C140.390671,348.470428 136.240753,346.953217 134.263611,344.476837 
	C130.872986,340.230164 128.906738,334.846191 125.767891,328.840332 
	C128.199280,329.859619 129.630112,330.459473 131.556168,331.495911 
	C140.450180,337.556732 150.181808,341.283997 161.516327,342.453583 
	C174.773087,350.907715 201.446991,352.398041 208.109772,344.076447 
	C193.015472,339.102966 178.574890,334.138824 162.135620,340.275909 
	C154.080719,339.029785 146.109467,337.548950 138.548721,332.395905 
	C145.689728,328.792969 149.577194,336.964539 155.682999,334.978058 
	C153.948242,333.683289 152.213470,332.388550 150.204376,330.889038 
	C151.429810,330.105499 152.248108,329.582306 153.841293,329.022949 
	C155.872589,329.127533 157.903885,329.232147 160.644714,329.682404 
	C162.164154,330.262146 163.646820,331.079987 165.218338,331.322784 
	C166.023560,331.447205 166.987671,330.543365 167.879974,330.104218 
	C167.256851,329.470764 166.739777,328.518555 165.988998,328.268738 
	C164.311981,327.710724 162.518402,327.502960 161.158279,326.719666 
	C162.784012,326.185822 164.409760,325.651947 166.504669,324.932709 
	C166.658188,324.864105 166.811722,324.795502 167.503616,324.634186 
	C168.013168,324.451111 168.522720,324.268005 169.798294,323.992371 
	C171.904312,322.990448 174.010315,321.988556 176.116333,320.986633 
	C175.767685,320.303558 175.419022,319.620483 175.070343,318.937378 
	C173.041428,320.101715 171.012497,321.266052 168.816727,321.941406 
	C168.835129,321.258453 168.853531,320.575470 169.277084,319.361603 
	C170.751358,317.839386 172.441040,316.461487 173.601624,314.729095 
	C174.118622,313.957367 173.570297,312.471924 173.505478,311.310394 
	C172.344803,311.501038 170.636108,311.282837 170.129730,311.961578 
	C168.794403,313.751495 167.980972,315.930817 166.573196,318.089905 
	C166.144989,317.167908 165.685684,316.258881 165.295792,315.320953 
	C164.689819,313.863251 164.131119,312.385895 163.552383,310.916870 
	C162.951416,312.508942 162.240356,314.071320 161.799026,315.706512 
	C161.598419,316.449799 162.024872,317.339233 162.007141,318.158905 
	C161.916046,322.369080 159.752014,324.341736 154.979050,324.310608 
	C155.106979,321.741028 155.424316,319.464844 155.240128,317.229980 
	C155.155945,316.208496 154.083664,315.268402 153.459549,314.291412 
	C152.894104,315.317474 151.983551,316.298096 151.841202,317.379822 
	C151.607040,319.159058 151.870499,321.003845 151.478378,322.416107 
	C150.294205,321.515320 149.110046,320.614502 147.521790,319.406311 
	C146.989258,320.964661 146.487640,321.714661 146.526138,322.435822 
	C146.783936,327.266022 144.463791,328.814545 139.874435,328.277191 
	C137.301682,327.975922 134.649323,328.354279 131.437988,328.231812 
	C131.238708,328.170166 131.039413,328.108521 130.307693,327.742035 
	C129.541260,327.437500 128.774811,327.132965 127.606956,326.311218 
	C124.736282,323.193970 121.865616,320.076752 119.749535,317.066711 
	C124.751862,317.842285 129.742569,318.720215 134.768143,319.290771 
	C135.587143,319.383759 137.091125,318.257111 137.305161,317.439392 
	C137.498764,316.699768 136.572372,315.340454 135.776459,314.722351 
	C131.280838,311.231049 126.281212,309.640625 120.469612,310.526337 
	C117.416725,310.991638 114.250572,310.713867 110.751816,310.251770 
	C106.446846,306.188721 102.141876,302.125671 97.562225,297.521332 
	C96.982796,296.697052 96.403366,295.872772 95.567932,294.701721 
	C95.380539,294.480560 95.167572,294.287659 94.778442,293.502625 
	C94.724915,293.296661 94.671387,293.090729 94.470703,292.598541 
	C94.344261,292.420319 94.187508,292.274689 93.931190,292.096497 
	C93.931190,292.096497 93.844780,292.056824 93.669350,291.395844 
	C92.450775,289.583710 91.232201,287.771606 90.015244,285.976959 
	C90.015244,285.976959 90.032219,285.941650 89.953667,285.342468 
	C89.953667,284.285126 89.953667,283.227783 89.953667,282.170441 
	C90.362122,281.798615 90.770576,281.426788 91.179031,281.054962 
	C94.483231,283.664856 97.787430,286.274750 101.500038,289.410858 
	C106.099159,291.477722 110.660095,293.639771 115.335838,295.515656 
	C116.094406,295.819977 117.592789,295.087067 118.300163,294.382660 
	C118.671593,294.012848 118.392593,292.215729 117.856499,291.831329 
	C113.640747,288.808289 109.291786,285.971039 104.262558,282.787109 
	C102.618584,282.555420 100.956696,282.410828 99.333717,282.077026 
	C92.173180,280.604309 85.948006,278.195862 84.638840,269.590057 
	C83.740204,263.682861 82.064110,257.898010 80.996674,252.011139 
	C80.137749,247.274200 79.670288,242.466278 79.029144,237.689835 
	C78.688019,237.726013 78.346893,237.762192 78.005768,237.798370 
	C77.224342,247.528351 76.442917,257.258331 75.287491,267.705536 
	C75.182335,272.126038 75.077187,276.546539 74.525246,281.463623 
	C70.954071,285.809509 67.291542,290.085266 63.869114,294.545288 
	C62.881691,295.832062 62.547016,297.637115 62.048351,299.246460 
	C62.011173,299.366425 63.447334,300.186859 63.557571,300.071136 
	C64.749893,298.819244 65.770683,297.406647 66.922394,296.112793 
	C68.830338,293.969360 70.800003,291.880829 72.890923,289.896393 
	C72.890923,289.896393 73.038414,290.023285 72.972137,290.820160 
	C72.299934,293.346832 71.460609,295.845856 71.036064,298.413452 
	C70.861137,299.471375 71.577911,300.676788 71.889084,301.815094 
	C72.852020,300.973572 74.490547,300.253052 74.666451,299.270630 
	C75.682152,293.598145 76.352371,287.863770 77.551826,282.116302 
	C77.551826,282.116302 77.965302,282.126953 78.016525,282.936554 
	C78.353653,285.978973 78.690781,289.021393 79.100891,292.742218 
	C78.870247,294.625946 78.357124,296.533447 78.512848,298.384674 
	C78.609238,299.530457 79.722282,300.590698 80.378967,301.689362 
	C81.272652,300.751068 82.937477,299.792114 82.912987,298.878418 
	C82.844124,296.309021 82.079811,293.758270 81.627151,290.369202 
	C80.752403,286.902588 79.877647,283.436005 78.933182,279.106567 
	C78.645821,275.440826 78.358467,271.775116 78.395828,267.652863 
	C78.843979,266.777557 79.292137,265.902252 79.667511,265.169098 
	C82.880661,272.611694 85.980377,279.791565 89.133385,287.743744 
	C89.932320,290.458984 90.731247,293.174255 91.591774,296.698853 
	C93.287964,306.280334 93.751762,315.475189 87.708015,324.205902 
	C84.684723,328.573303 83.323166,334.091095 81.102386,339.555542 
	C81.102386,339.555542 81.014374,340.026611 80.459663,340.295044 
	C79.695244,341.217133 78.930824,342.139191 78.063515,343.120667 
	C78.063515,343.120667 77.977921,343.203064 77.758461,343.366791 
	C77.619820,343.486115 77.505981,343.625702 77.152077,344.615570 
	C77.065994,344.892975 76.979904,345.170349 76.857002,345.449463 
	C76.857002,345.449463 76.841606,345.519592 76.575294,346.388428 
	C76.108391,349.257721 75.486160,352.115326 75.268196,355.003418 
	C75.201874,355.882172 76.250046,356.845001 76.787781,357.769348 
	C77.819550,357.159058 79.077759,356.743164 79.817268,355.881927 
	C80.510361,355.074768 80.654449,353.796204 81.177223,352.621429 
	C81.177223,352.621429 81.374130,352.357544 81.643440,351.462402 
	C81.720428,351.160461 81.797424,350.858521 82.286034,349.986145 
	C82.811417,347.090271 83.599243,344.213196 83.808540,341.294647 
	C84.269669,334.864441 87.375954,329.758423 91.877785,325.049469 
	C91.341751,330.354309 90.805717,335.659180 90.129898,341.791412 
	C88.202110,349.727600 89.985748,357.010345 93.718803,364.025848 
	C98.277832,355.548584 100.525284,347.043762 95.804298,337.291687 
	C92.346718,330.133057 95.871384,322.784576 95.213081,315.549835 
	C95.736580,315.738861 96.260078,315.927856 97.006981,316.797516 
	C99.684471,323.214233 102.361961,329.630951 105.103760,336.717133 
	C105.130768,337.164642 105.157768,337.612183 105.237755,338.611816 
	C105.467430,339.111389 105.697113,339.610931 106.090302,340.811737 
	C107.294464,343.152557 108.325645,345.609772 109.785393,347.778564 
	C110.394821,348.683990 111.915543,348.976044 113.021912,349.547028 
	C113.574715,348.291351 114.871788,346.785187 114.548447,345.824310 
	C113.304451,342.127441 111.541687,338.605103 109.689651,334.719025 
	C109.490929,334.530731 109.273506,334.367340 108.907127,334.103699 
M183.161331,199.472336 
	C178.068146,219.825699 173.272079,240.260986 167.696457,260.481323 
	C166.072891,266.369324 162.185028,271.624634 159.415726,277.209900 
	C158.517120,279.022278 156.754761,282.022980 157.335220,282.636047 
	C158.822327,284.206726 161.383743,285.505981 163.550232,285.561462 
	C174.209000,285.834595 184.882034,285.797516 195.542709,285.552032 
	C197.807587,285.499878 201.508301,284.591034 201.939835,283.242462 
	C202.556503,281.315277 200.851776,278.588379 199.969589,276.267181 
	C199.627441,275.366913 198.761566,274.680267 198.242523,273.830200 
	C194.944778,268.429077 196.455215,261.904510 201.869339,258.919922 
	C210.476486,254.175171 219.198715,249.639191 227.805832,244.894379 
	C230.945038,243.163879 232.627396,243.562546 233.404617,247.334610 
	C234.714508,253.691895 236.205124,260.017578 237.829468,266.302338 
	C238.845673,270.234070 238.730804,273.648529 236.153992,277.142670 
	C234.977951,278.737396 234.372635,281.744781 235.096680,283.428406 
	C235.654068,284.724548 238.682632,285.526154 240.629959,285.560944 
	C250.625595,285.739349 260.630402,285.728394 270.623535,285.463989 
	C272.725098,285.408417 276.085876,284.466217 276.556641,283.123077 
	C277.191010,281.312927 276.216431,278.185547 274.834412,276.552826 
	C268.932892,269.580719 265.828766,261.498383 263.949646,252.733307 
	C262.728485,247.037415 261.112915,241.427155 259.739044,235.762756 
	C252.906631,207.593124 246.061752,179.426437 239.311188,151.237152 
	C238.201874,146.604874 238.381546,142.137924 241.235062,137.831573 
	C244.775497,132.488602 242.983368,129.362518 236.483414,129.295273 
	C223.485672,129.160797 210.485001,129.156769 197.486954,129.266174 
	C190.888962,129.321686 189.314240,132.125488 192.976929,137.782700 
	C195.552963,141.761505 196.063522,145.667114 194.990234,150.096222 
	C191.069183,166.277023 187.213867,182.473770 183.161331,199.472336 
z"/>
<path fill="#212244" opacity="1.000000" stroke="none" 
	d="
M183.247559,199.068420 
	C187.213867,182.473770 191.069183,166.277023 194.990234,150.096222 
	C196.063522,145.667114 195.552963,141.761505 192.976929,137.782700 
	C189.314240,132.125488 190.888962,129.321686 197.486954,129.266174 
	C210.485001,129.156769 223.485672,129.160797 236.483414,129.295273 
	C242.983368,129.362518 244.775497,132.488602 241.235062,137.831573 
	C238.381546,142.137924 238.201874,146.604874 239.311188,151.237152 
	C246.061752,179.426437 252.906631,207.593124 259.739044,235.762756 
	C261.112915,241.427155 262.728485,247.037415 263.949646,252.733307 
	C265.828766,261.498383 268.932892,269.580719 274.834412,276.552826 
	C276.216431,278.185547 277.191010,281.312927 276.556641,283.123077 
	C276.085876,284.466217 272.725098,285.408417 270.623535,285.463989 
	C260.630402,285.728394 250.625595,285.739349 240.629959,285.560944 
	C238.682632,285.526154 235.654068,284.724548 235.096680,283.428406 
	C234.372635,281.744781 234.977951,278.737396 236.153992,277.142670 
	C238.730804,273.648529 238.845673,270.234070 237.829468,266.302338 
	C236.205124,260.017578 234.714508,253.691895 233.404617,247.334610 
	C232.627396,243.562546 230.945038,243.163879 227.805832,244.894379 
	C219.198715,249.639191 210.476486,254.175171 201.869339,258.919922 
	C196.455215,261.904510 194.944778,268.429077 198.242523,273.830200 
	C198.761566,274.680267 199.627441,275.366913 199.969589,276.267181 
	C200.851776,278.588379 202.556503,281.315277 201.939835,283.242462 
	C201.508301,284.591034 197.807587,285.499878 195.542709,285.552032 
	C184.882034,285.797516 174.209000,285.834595 163.550232,285.561462 
	C161.383743,285.505981 158.822327,284.206726 157.335220,282.636047 
	C156.754761,282.022980 158.517120,279.022278 159.415726,277.209900 
	C162.185028,271.624634 166.072891,266.369324 167.696457,260.481323 
	C173.272079,240.260986 178.068146,219.825699 183.247559,199.068420 
M209.888367,202.480469 
	C208.081818,210.605194 206.275253,218.729919 204.468689,226.854645 
	C205.011795,227.225082 205.554901,227.595520 206.098007,227.965958 
	C211.141205,225.289764 216.097321,222.428543 221.256973,219.999695 
	C224.957108,218.257919 225.915619,215.789810 225.042755,211.972672 
	C223.115341,203.544022 221.413483,195.064041 219.562790,186.617447 
	C219.004486,184.069336 218.259125,181.562180 217.599472,179.036270 
	C216.922714,179.069000 216.245956,179.101730 215.569199,179.134460 
	C213.752808,186.646973 211.936417,194.159500 209.888367,202.480469 
z"/>
<path fill="#192335" opacity="1.000000" stroke="none" 
	d="
M291.411346,95.541817 
	C288.683624,91.933731 285.955902,88.325645 283.227722,84.133865 
	C283.527771,83.024162 283.828278,82.498154 284.128784,81.972153 
	C284.977295,82.885506 285.825775,83.798851 287.496918,85.597710 
	C287.615387,83.232796 287.865082,81.994934 287.705933,80.812065 
	C286.734894,73.594574 285.487610,66.407776 284.769348,59.167393 
	C284.593964,57.399296 286.380829,53.809456 286.706604,53.874096 
	C289.513184,54.430939 292.191589,55.633606 294.908234,56.643604 
	C294.198029,58.425037 293.557373,60.238163 292.762756,61.981102 
	C291.254303,65.289856 289.657684,68.558388 288.097687,71.843628 
	C288.753540,72.174080 289.409393,72.504539 290.065216,72.834991 
	C292.908234,67.736908 295.751251,62.638824 299.023376,57.453667 
	C300.898346,57.884407 302.344269,58.402218 303.790161,58.920036 
	C300.577423,63.114315 297.047272,67.106400 294.219360,71.545799 
	C288.668854,80.259224 289.384613,89.233551 296.917999,96.396049 
	C303.007446,102.185692 310.070648,106.951103 317.093567,112.436188 
	C317.485260,112.701515 317.841675,112.937675 317.841675,112.937675 
	C317.841675,112.937675 317.943817,113.005005 318.155426,113.202866 
	C318.591339,113.610458 318.823212,113.811462 319.062683,114.003738 
	C319.516052,114.302414 319.969421,114.601082 320.526093,115.234818 
	C320.213135,115.967232 319.796906,116.364586 319.380646,116.761948 
	C316.155640,115.578392 312.930664,114.394836 309.321411,112.852409 
	C308.045380,111.794464 307.153595,111.095383 306.261810,110.396301 
	C305.640228,109.149940 305.347626,107.364403 304.340485,106.749939 
	C299.820892,103.992378 295.348816,100.328255 290.387634,99.325058 
	C283.608765,97.954308 276.391785,98.473549 269.389893,98.788620 
	C268.370483,98.834496 266.680511,102.276733 266.762146,104.081276 
	C266.876434,106.608376 266.680359,108.006927 264.182556,109.148903 
	C263.059082,109.662544 262.664917,111.682167 261.833710,112.948814 
	C260.970520,114.264198 259.979065,115.495407 259.043701,116.763428 
	C258.406555,115.257492 257.459137,113.802910 257.199524,112.234482 
	C256.718628,109.329109 256.639923,106.357155 256.198486,102.806511 
	C256.018585,101.665054 256.033936,101.130028 256.049286,100.595001 
	C257.611298,99.530769 259.173279,98.466537 261.462708,96.906693 
	C258.518250,95.478928 256.312134,94.409164 254.105988,93.339401 
	C254.243774,92.725685 254.381577,92.111961 254.519363,91.498245 
	C256.507477,91.896263 258.726654,91.860275 260.440796,92.772865 
	C265.793335,95.622444 271.201752,96.587082 277.537018,94.447914 
	C276.746948,93.574760 276.163086,92.929482 275.609528,92.013130 
	C276.113281,91.482964 276.586670,91.223869 277.060089,90.964767 
	C281.446442,92.613243 285.832764,94.261711 290.664337,96.094933 
	C291.266571,96.305672 291.423584,96.331657 291.580597,96.357643 
	C291.524170,96.085701 291.467773,95.813759 291.411346,95.541817 
z"/>
<path fill="#1F2240" opacity="1.000000" stroke="none" 
	d="
M162.973648,340.443146 
	C178.574890,334.138824 193.015472,339.102966 208.109772,344.076447 
	C201.446991,352.398041 174.773087,350.907715 161.438538,342.081055 
	C161.898361,341.286743 162.436005,340.864960 162.973648,340.443146 
z"/>
<path fill="#19262F" opacity="1.000000" stroke="none" 
	d="
M153.090027,352.897247 
	C150.743042,352.536407 148.396057,352.175537 146.049072,351.814697 
	C145.847275,352.196991 145.645493,352.579285 145.443695,352.961578 
	C147.112823,354.795563 148.781952,356.629517 150.292206,358.708862 
	C148.745789,359.980469 147.358261,361.006683 145.970734,362.032898 
	C143.723450,357.399414 141.771011,352.526825 135.949203,349.841248 
	C135.949203,351.350403 135.949203,352.358459 135.731232,353.919983 
	C134.688950,357.988190 133.864624,361.502899 133.040314,365.017639 
	C132.939392,362.752747 132.584976,360.465240 132.784683,358.227173 
	C133.402679,351.301086 131.545792,343.862701 126.888580,338.147186 
	C126.888580,343.239502 126.888580,347.233032 126.535873,351.488342 
	C125.418854,351.503174 124.654556,351.256226 123.939354,350.693451 
	C124.043488,349.955536 124.098534,349.533447 124.227272,349.013794 
	C124.052895,348.809174 123.804825,348.702057 123.266922,348.752258 
	C120.974876,351.283203 118.972656,353.656830 116.978790,356.012817 
	C116.987152,355.995117 117.023781,355.981750 117.023773,355.981750 
	C116.472557,356.549500 115.921349,357.117279 114.856873,357.782349 
	C111.923660,358.271454 109.503700,358.663269 107.083755,359.055054 
	C111.488541,355.084564 116.187088,351.388580 120.221169,347.071716 
	C124.897285,342.067780 125.646141,335.894653 122.209030,329.976959 
	C119.432983,325.197510 115.727180,320.958099 112.495758,316.100281 
	C113.025871,315.509003 113.494064,315.296570 114.225769,315.192902 
	C115.006615,315.540131 115.523941,315.778595 116.016174,316.015991 
	C115.991066,316.014954 115.963188,315.973145 116.225967,316.178345 
	C117.341530,316.590546 118.194305,316.797485 119.024513,317.004303 
	C119.001938,317.004181 118.994942,316.959503 118.994942,316.959503 
	C121.865616,320.076752 124.736282,323.193970 128.075455,326.732056 
	C129.309341,327.450867 130.074722,327.748871 130.840103,328.046844 
	C131.039413,328.108521 131.238708,328.170166 131.763580,328.532776 
	C131.746414,329.575592 131.403687,330.317474 131.060944,331.059326 
	C129.630112,330.459473 128.199280,329.859619 125.767891,328.840332 
	C128.906738,334.846191 130.872986,340.230164 134.263611,344.476837 
	C136.240753,346.953217 140.390671,348.470428 143.752869,348.887085 
	C149.050171,349.543457 154.507416,348.909302 159.864731,349.020935 
	C157.585022,350.446014 155.337524,351.671631 153.090027,352.897247 
z"/>
<path fill="#1E233D" opacity="1.000000" stroke="none" 
	d="
M191.168991,87.425499 
	C191.340149,87.346283 191.511322,87.267059 192.043213,87.021912 
	C192.403961,86.855980 192.761490,86.578278 192.761490,86.578278 
	C192.984604,86.495148 193.207718,86.412018 194.070374,86.149391 
	C194.915222,85.935509 195.120514,85.901131 195.325821,85.866745 
	C195.685806,85.707138 196.045807,85.547531 196.684982,85.697784 
	C196.966949,86.269669 196.969727,86.531700 196.930023,87.087769 
	C197.950867,87.905998 199.024445,88.902267 200.075882,88.879433 
	C208.198380,88.703087 216.340530,88.609131 224.427521,87.916573 
	C229.623856,87.471565 234.737045,86.055794 240.151291,84.925293 
	C240.961594,84.510544 241.508118,84.245659 242.054642,83.980774 
	C242.833160,84.328461 243.611664,84.676147 244.842285,85.220047 
	C245.201385,86.218521 245.108414,87.020790 245.015427,87.823059 
	C227.875641,96.783867 209.977249,95.918961 191.354370,91.540878 
	C190.561081,90.405754 190.250992,89.658447 189.940903,88.911148 
	C190.103088,88.728073 190.292053,88.578957 190.761200,88.169342 
	C191.014603,87.874908 191.168991,87.425499 191.168991,87.425499 
z"/>
<path fill="#1B2139" opacity="1.000000" stroke="none" 
	d="
M276.096008,55.293800 
	C276.164001,55.576431 276.181427,55.862148 276.221832,56.589310 
	C276.451538,57.320156 276.617188,57.607178 276.792297,57.888729 
	C276.850189,60.002052 276.908081,62.115376 277.030518,64.964966 
	C277.316345,66.438766 277.537628,67.176308 277.758911,67.913857 
	C277.789581,68.106468 277.820221,68.299072 277.759399,68.983521 
	C277.208099,69.923988 276.748260,70.372597 276.288422,70.821213 
	C271.090210,63.579266 265.251312,56.678799 263.779327,47.444733 
	C263.285370,44.345894 262.438019,41.238342 262.477295,38.143986 
	C262.500824,36.292885 263.929901,34.459633 264.727203,32.618355 
	C266.296417,33.650105 268.669891,34.333912 269.293243,35.774841 
	C271.770294,41.500690 273.700989,47.462898 275.922150,54.030457 
	C276.038849,54.913517 276.067444,55.103661 276.096008,55.293800 
z"/>
<path fill="#1A282F" opacity="1.000000" stroke="none" 
	d="
M355.301727,143.968002 
	C352.619385,137.068909 349.832428,130.206848 347.364838,123.231796 
	C346.984344,122.156319 347.874542,120.441750 348.588623,119.274536 
	C348.828796,118.881989 350.992371,118.980927 351.160675,119.356049 
	C351.700562,120.559265 352.058350,122.043915 351.879120,123.335716 
	C351.071472,129.157455 353.269196,134.043503 355.608154,138.921463 
	C356.099182,138.867477 356.590210,138.813477 357.081238,138.759491 
	C357.081238,133.033981 356.989502,127.306030 357.142700,121.584633 
	C357.183380,120.064766 357.917084,118.540565 358.516510,117.094597 
	C358.575348,116.952667 360.539276,117.246628 360.583252,117.510757 
	C360.838654,119.044350 360.915924,120.638855 360.806763,122.195473 
	C360.574402,125.508705 360.190674,128.811325 359.868958,132.118286 
	C360.598389,132.341751 361.327789,132.565216 362.057190,132.788666 
	C363.843201,129.266403 365.629211,125.744148 367.726807,122.142097 
	C368.636414,122.664001 369.234467,123.265694 369.832520,123.867386 
	C367.869568,127.448593 365.639496,130.914093 364.023071,134.645416 
	C362.571533,137.996078 361.794373,141.638840 360.559753,145.308289 
	C358.700439,144.965225 357.001068,144.466614 355.301727,143.968002 
z"/>
<path fill="#1E233D" opacity="1.000000" stroke="none" 
	d="
M305.904388,110.219711 
	C307.153595,111.095383 308.045380,111.794464 309.013306,112.685135 
	C305.042572,113.656853 300.982910,114.376732 296.951874,115.231522 
	C291.189240,116.453514 285.744141,115.729485 280.735535,112.607742 
	C279.716125,111.972366 278.254059,110.534081 278.432556,109.830170 
	C278.730408,108.655533 280.006104,107.388474 281.186523,106.834404 
	C287.778534,103.740280 294.130341,106.690086 300.513306,107.974724 
	C302.259247,108.326103 303.872711,109.335617 305.904388,110.219711 
z"/>
<path fill="#182733" opacity="1.000000" stroke="none" 
	d="
M96.783577,316.116882 
	C96.260078,315.927856 95.736580,315.738861 95.213081,315.549835 
	C95.871384,322.784576 92.346718,330.133057 95.624138,337.610962 
	C93.719215,338.941498 91.994446,339.952759 90.269684,340.964020 
	C90.805717,335.659180 91.341751,330.354309 91.877785,325.049469 
	C87.375954,329.758423 84.269669,334.864441 83.808540,341.294647 
	C83.599243,344.213196 82.811417,347.090271 82.098465,349.869110 
	C81.677277,346.197571 81.443657,342.643066 81.210030,339.088562 
	C83.323166,334.091095 84.684723,328.573303 87.708015,324.205902 
	C93.751762,315.475189 93.287964,306.280334 91.855362,296.268616 
	C93.071419,295.555420 94.023895,295.272461 95.188293,295.003723 
	C95.400215,295.017975 95.823936,295.048492 95.823936,295.048492 
	C96.403366,295.872772 96.982796,296.697052 97.463852,297.915771 
	C96.891182,298.557556 96.416901,298.804871 95.942619,299.052185 
	C93.213516,305.105560 96.637070,310.067383 98.539536,315.627136 
	C97.769722,316.041809 97.276649,316.079346 96.783577,316.116882 
z"/>
<path fill="#1B2B2E" opacity="1.000000" stroke="none" 
	d="
M75.661499,266.988312 
	C76.442917,257.258331 77.224342,247.528351 78.005768,237.798370 
	C78.346893,237.762192 78.688019,237.726013 79.029144,237.689835 
	C79.670288,242.466278 80.137749,247.274200 80.996674,252.011139 
	C82.064110,257.898010 83.740204,263.682861 84.638840,269.590057 
	C85.948006,278.195862 92.173180,280.604309 99.333717,282.077026 
	C100.956696,282.410828 102.618584,282.555420 104.327026,283.041199 
	C101.023819,283.819580 99.651833,285.522125 101.091629,288.884674 
	C97.787430,286.274750 94.483231,283.664856 91.179031,281.054962 
	C90.770576,281.426788 90.362122,281.798615 89.953667,282.170441 
	C89.953667,283.227783 89.953667,284.285126 89.835876,285.815491 
	C89.505371,286.516113 89.292702,286.743744 89.080093,286.971436 
	C85.980377,279.791565 82.880661,272.611694 79.667511,265.169098 
	C79.292137,265.902252 78.843979,266.777557 78.165581,267.689758 
	C77.177391,267.480530 76.419441,267.234406 75.661499,266.988312 
z"/>
<path fill="#172331" opacity="1.000000" stroke="none" 
	d="
M255.666092,100.554764 
	C256.033936,101.130028 256.018585,101.665054 255.998077,102.469238 
	C254.919067,103.501312 253.856262,104.280380 252.769409,105.024345 
	C248.030960,108.267830 247.264084,110.734238 249.431320,115.880280 
	C249.686768,116.486786 250.246643,117.062706 250.251968,117.656517 
	C250.262909,118.875244 250.256989,120.232941 249.726151,121.258003 
	C249.468277,121.755981 247.564774,122.077682 247.190460,121.700638 
	C246.376526,120.880814 245.774460,119.600723 245.616608,118.436783 
	C245.366074,116.589317 245.549789,114.682953 244.504211,112.405083 
	C243.484680,114.109253 242.465149,115.813423 240.975952,117.625748 
	C239.990326,117.473480 239.474380,117.213066 238.958435,116.952644 
	C239.673019,114.986244 240.387589,113.019844 241.322113,110.654510 
	C241.336975,110.136490 241.131851,110.017403 240.926758,109.898315 
	C239.364975,111.037239 237.921814,112.433174 236.200928,113.227295 
	C234.996490,113.783096 233.412613,113.516693 231.998199,113.617508 
	C232.545944,112.411049 232.782272,110.539146 233.694763,110.112144 
	C237.872147,108.157280 242.243027,106.617371 246.532730,104.899277 
	C247.096497,104.673477 247.593018,104.279747 247.997284,103.063004 
	C246.351944,103.063004 244.676910,103.251518 243.071381,102.998680 
	C241.946136,102.821487 240.915741,102.042030 239.842987,101.531540 
	C240.893921,100.789635 241.964508,99.390633 242.992340,99.421387 
	C247.096436,99.544174 251.187195,100.111633 255.666092,100.554764 
z"/>
<path fill="#2A353A" opacity="1.000000" stroke="none" 
	d="
M355.349274,144.352203 
	C357.001068,144.466614 358.700439,144.965225 360.547699,145.660706 
	C360.780060,149.670792 361.123566,153.499268 360.900330,157.294388 
	C360.232788,168.642441 361.521271,179.750504 364.303284,190.738358 
	C364.642426,192.077881 364.349487,193.577438 364.349487,195.002838 
	C363.852783,195.070114 363.356079,195.137390 362.859344,195.204651 
	C360.611969,187.087357 358.364594,178.970062 355.941101,170.298035 
	C355.624695,169.508102 355.468689,169.283859 355.296936,169.070557 
	C355.245392,168.872528 355.193817,168.674500 355.041107,167.902924 
	C354.911499,167.145325 354.883057,166.961273 354.854614,166.777222 
	C354.302185,165.714920 353.749756,164.652603 353.369965,163.162308 
	C354.056213,162.469406 354.569824,162.204498 355.083405,161.939575 
	C355.730988,163.075867 356.378571,164.212158 357.418243,166.036407 
	C359.292450,158.196564 356.925598,151.502304 355.349274,144.352203 
z"/>
<path fill="#1F2240" opacity="1.000000" stroke="none" 
	d="
M304.095398,58.756786 
	C302.344269,58.402218 300.898346,57.884407 299.196808,57.147362 
	C299.587036,51.711731 299.982544,46.444191 301.031525,41.310150 
	C301.345551,39.773075 303.484558,38.608868 304.787506,37.273842 
	C306.160980,38.737911 308.138062,39.971706 308.800171,41.707161 
	C311.254303,48.139847 309.356964,54.715981 304.095398,58.756786 
z"/>
<path fill="#1E233D" opacity="1.000000" stroke="none" 
	d="
M90.199791,341.377716 
	C91.994446,339.952759 93.719215,338.941498 95.743408,337.971832 
	C100.525284,347.043762 98.277832,355.548584 93.718803,364.025848 
	C89.985748,357.010345 88.202110,349.727600 90.199791,341.377716 
z"/>
<path fill="#122028" opacity="1.000000" stroke="none" 
	d="
M131.308563,331.277618 
	C131.403687,330.317474 131.746414,329.575592 132.061005,328.630066 
	C134.649323,328.354279 137.301682,327.975922 139.874435,328.277191 
	C144.463791,328.814545 146.783936,327.266022 146.526138,322.435822 
	C146.487640,321.714661 146.989258,320.964661 147.521790,319.406311 
	C149.110046,320.614502 150.294205,321.515320 151.610168,322.908722 
	C152.183426,325.287262 152.624924,327.173157 153.066422,329.059082 
	C152.248108,329.582306 151.429810,330.105499 150.204376,330.889038 
	C152.213470,332.388550 153.948242,333.683289 155.682999,334.978058 
	C149.577194,336.964539 145.689728,328.792969 138.548721,332.395905 
	C146.109467,337.548950 154.080719,339.029785 162.554626,340.359528 
	C162.436005,340.864960 161.898361,341.286743 161.167603,341.881866 
	C150.181808,341.283997 140.450180,337.556732 131.308563,331.277618 
M135.944061,330.457306 
	C135.944061,330.457306 136.035233,330.462769 135.944061,330.457306 
z"/>
<path fill="#1E233D" opacity="1.000000" stroke="none" 
	d="
M113.962250,315.084106 
	C113.494064,315.296570 113.025871,315.509003 112.317856,315.814819 
	C111.532265,315.430420 110.986488,314.952698 110.322388,313.930298 
	C110.514565,312.514343 110.825073,311.642975 111.135574,310.771637 
	C114.250572,310.713867 117.416725,310.991638 120.469612,310.526337 
	C126.281212,309.640625 131.280838,311.231049 135.776459,314.722351 
	C136.572372,315.340454 137.498764,316.699768 137.305161,317.439392 
	C137.091125,318.257111 135.587143,319.383759 134.768143,319.290771 
	C129.742569,318.720215 124.751862,317.842285 119.372238,317.013123 
	C118.994942,316.959503 119.001938,317.004181 118.776100,316.773865 
	C117.687904,316.353424 116.825546,316.163300 115.963188,315.973145 
	C115.963188,315.973145 115.991066,316.014954 115.978607,315.774597 
	C115.298187,315.384216 114.630219,315.234161 113.962250,315.084106 
z"/>
<path fill="#1C2338" opacity="1.000000" stroke="none" 
	d="
M146.039383,362.379944 
	C147.358261,361.006683 148.745789,359.980469 150.439972,358.991394 
	C153.898788,361.314941 157.095093,363.543427 160.191132,365.903473 
	C163.547958,368.462280 166.944733,371.001251 170.015381,373.878326 
	C170.722626,374.541016 170.726166,377.090057 170.046371,377.782776 
	C169.348068,378.494507 167.000427,378.574829 166.099503,377.925537 
	C162.664856,375.450256 159.529938,372.560364 156.268372,369.843018 
	C154.608917,368.460480 152.918213,367.115417 150.613037,365.877533 
	C149.069336,366.015381 148.154236,366.029083 147.239136,366.042816 
	C146.862106,364.937561 146.485077,363.832275 146.039383,362.379944 
M148.545212,362.989166 
	C148.795593,362.986786 149.045959,362.984406 149.296341,362.982025 
	C149.207916,362.749512 149.119492,362.517029 149.031036,362.284485 
	C148.835419,362.428741 148.639801,362.572968 148.545212,362.989166 
z"/>
<path fill="#1E233D" opacity="1.000000" stroke="none" 
	d="
M254.023300,73.978485 
	C248.338486,78.231735 237.907928,77.776505 232.791611,72.928131 
	C232.065979,72.240517 231.247055,70.527153 231.569321,70.080215 
	C232.363678,68.978493 233.937225,67.483589 234.949936,67.650352 
	C241.197388,68.679070 247.376312,70.124046 253.811890,72.025635 
	C254.038284,73.073242 254.030792,73.525864 254.023300,73.978485 
z"/>
<path fill="#212244" opacity="1.000000" stroke="none" 
	d="
M133.059494,365.432373 
	C133.864624,361.502899 134.688950,357.988190 135.771515,354.204651 
	C136.029755,353.935883 136.065811,353.923462 136.161163,354.232056 
	C136.790482,355.384491 137.324448,356.228302 137.858414,357.072113 
	C137.858414,357.072113 137.912521,357.097870 138.028000,357.272034 
	C138.272598,357.657074 138.425659,357.848785 138.602692,358.021362 
	C138.663132,358.216125 138.723557,358.410858 138.981293,359.051453 
	C139.311737,359.705261 139.468521,359.893402 139.648972,360.061859 
	C139.686264,360.230072 139.723541,360.398285 139.826996,361.115845 
	C140.472565,364.161011 141.051941,366.656830 141.631332,369.152679 
	C141.631332,369.152679 141.794968,369.575043 141.815948,370.147400 
	C141.905838,373.148712 141.974747,375.577728 142.043640,378.006714 
	C141.169037,379.622742 140.294434,381.238800 139.419846,382.854828 
	C138.026581,381.442963 136.349289,380.207306 135.329605,378.563660 
	C134.509705,377.242035 134.485794,375.426605 134.009598,373.126282 
	C133.664413,371.616730 133.418320,370.811188 133.172226,370.005646 
	C133.141052,368.619476 133.109863,367.233276 133.059494,365.432373 
z"/>
<path fill="#172331" opacity="1.000000" stroke="none" 
	d="
M153.453857,329.041016 
	C152.624924,327.173157 152.183426,325.287262 151.833054,323.111145 
	C151.870499,321.003845 151.607040,319.159058 151.841202,317.379822 
	C151.983551,316.298096 152.894104,315.317474 153.459534,314.291412 
	C154.083664,315.268402 155.155945,316.208496 155.240128,317.229980 
	C155.424316,319.464844 155.106979,321.741028 154.979050,324.310608 
	C159.752014,324.341736 161.916046,322.369080 162.007141,318.158905 
	C162.024872,317.339233 161.598419,316.449799 161.799026,315.706512 
	C162.240356,314.071320 162.951416,312.508942 163.552399,310.916870 
	C164.131119,312.385895 164.689819,313.863251 165.295792,315.320953 
	C165.685684,316.258881 166.144989,317.167908 166.958008,318.217346 
	C167.852524,318.860718 168.362228,319.376617 168.871918,319.892517 
	C168.853531,320.575470 168.835129,321.258453 168.907471,322.460144 
	C169.009552,323.347534 169.020905,323.716217 169.032257,324.084900 
	C168.522720,324.268005 168.013168,324.451111 167.149353,324.644562 
	C166.430145,324.602814 166.176956,324.757202 166.035492,325.118103 
	C164.409760,325.651947 162.784012,326.185822 160.868561,327.152924 
	C160.364304,328.169708 160.149750,328.753235 159.935181,329.336731 
	C157.903885,329.232147 155.872589,329.127533 153.453857,329.041016 
z"/>
<path fill="#1F2240" opacity="1.000000" stroke="none" 
	d="
M330.824829,76.074913 
	C330.795990,76.534782 330.767181,76.994652 330.602783,78.089157 
	C329.589844,80.178543 328.712494,81.633286 327.835144,83.088028 
	C319.957733,74.267014 318.401245,63.966461 321.107086,52.643806 
	C323.118317,57.687187 324.569977,62.912552 326.470184,67.969368 
	C327.539459,70.814865 329.348846,73.382240 330.824829,76.074913 
z"/>
<path fill="#161E36" opacity="1.000000" stroke="none" 
	d="
M258.015717,60.013611 
	C256.692780,57.988861 255.369843,55.964115 253.963867,53.370205 
	C253.910492,51.861496 253.940170,50.921955 253.970184,49.593163 
	C253.937256,48.686272 253.904007,48.168633 253.819733,47.601318 
	C253.768707,47.551640 253.563614,47.371105 253.429596,46.914806 
	C253.213638,46.152233 253.131699,45.845959 253.016205,45.494873 
	C252.982635,45.450062 252.857529,45.290009 252.857529,45.290009 
	C251.260483,42.552372 248.923859,39.561527 255.305008,39.517742 
	C255.934845,39.327892 256.131409,39.027390 256.327942,38.726891 
	C256.619537,36.403416 256.858124,34.069767 257.298737,31.774906 
	C257.335754,31.582026 259.389130,31.552679 259.397583,31.610205 
	C259.712830,33.755428 260.461487,36.048935 260.001404,38.059155 
	C258.080963,46.450127 257.140625,54.636032 262.097504,62.609680 
	C260.963104,62.655163 260.000580,62.412693 258.963165,61.869377 
	C258.587433,61.037659 258.286591,60.506790 257.995331,59.983696 
	C258.004883,59.991467 258.015717,60.013615 258.015717,60.013611 
z"/>
<path fill="#1B2D28" opacity="1.000000" stroke="none" 
	d="
M354.994751,161.589981 
	C354.569824,162.204498 354.056213,162.469406 353.289185,162.872940 
	C352.943085,162.876297 352.812988,162.753510 352.763153,162.603973 
	C349.634949,153.211319 344.205658,146.248474 333.216736,144.296387 
	C332.481384,143.985870 332.285583,143.954742 332.081238,143.587250 
	C332.064880,142.800415 332.057037,142.349960 332.049164,141.899490 
	C335.158234,142.815353 338.267303,143.731216 341.376404,144.647095 
	C341.790649,144.189926 342.204865,143.732758 342.619110,143.275589 
	C339.238342,138.601547 335.857574,133.927521 332.271057,128.615631 
	C332.078583,127.249931 332.091888,126.522102 332.105164,125.794281 
	C332.531982,125.871269 332.958832,125.948257 333.697632,126.006882 
	C334.009583,125.988518 333.984924,125.964226 334.016083,126.246880 
	C334.340271,127.007057 334.633301,127.484581 335.078339,128.151611 
	C336.147217,128.563629 337.064087,128.786148 337.980927,129.008652 
	C343.622650,139.752563 349.264374,150.496475 354.994751,161.589981 
z"/>
<path fill="#1E233D" opacity="1.000000" stroke="none" 
	d="
M244.228790,56.786667 
	C237.731949,56.662891 233.144424,53.047657 229.308212,48.328548 
	C228.522415,47.361904 228.650452,45.652393 228.357269,44.285309 
	C229.844101,44.004192 231.564423,43.106125 232.771942,43.563087 
	C235.820312,44.716682 238.637878,46.480171 241.968231,48.288212 
	C242.538605,48.715546 242.695801,48.845310 242.860123,48.966450 
	C243.079956,49.030094 243.299774,49.093739 243.931137,49.350266 
	C244.457718,49.666222 244.577682,49.784290 244.702576,49.897358 
	C244.702576,49.897358 244.997299,50.217617 245.168915,50.408703 
	C245.340515,50.599789 245.487701,50.717468 245.487701,50.717468 
	C245.487701,50.717468 245.810532,51.005383 246.056885,51.252480 
	C246.422745,51.636669 246.552597,51.763111 246.692825,51.878899 
	C246.692825,51.878899 246.778870,52.135769 246.762680,52.554466 
	C245.907257,54.244335 245.068024,55.515499 244.228790,56.786667 
z"/>
<path fill="#1E233D" opacity="1.000000" stroke="none" 
	d="
M101.295830,289.147766 
	C99.651833,285.522125 101.023819,283.819580 104.687668,283.185913 
	C109.291786,285.971039 113.640747,288.808289 117.856499,291.831329 
	C118.392593,292.215729 118.671593,294.012848 118.300163,294.382660 
	C117.592789,295.087067 116.094406,295.819977 115.335838,295.515656 
	C110.660095,293.639771 106.099159,291.477722 101.295830,289.147766 
z"/>
<path fill="#1E233D" opacity="1.000000" stroke="none" 
	d="
M312.065735,87.033066 
	C305.732788,84.119446 302.798584,78.684708 301.447723,72.256905 
	C301.196289,71.060402 302.162750,69.607948 302.567078,68.273605 
	C303.734985,68.736198 305.384613,68.860130 305.988495,69.719200 
	C308.809570,73.732338 311.342102,77.948288 313.962646,82.801010 
	C313.320251,84.684532 312.692993,85.858795 312.065735,87.033066 
z"/>
<path fill="#1E233D" opacity="1.000000" stroke="none" 
	d="
M339.192749,63.069656 
	C339.266693,62.517540 339.340637,61.965427 339.548096,60.830444 
	C339.802551,59.875187 339.923492,59.502792 340.044403,59.130402 
	C340.139130,58.639664 340.119781,58.086567 340.348114,57.668896 
	C341.387451,55.767849 342.496460,53.904907 343.580444,52.028275 
	C344.647156,54.061893 346.735016,56.177441 346.579712,58.112995 
	C346.190247,62.966610 344.785492,67.738754 343.544189,72.890450 
	C343.300446,73.237320 343.219116,73.351814 343.219116,73.351814 
	C343.005524,73.450813 342.791901,73.549812 342.012024,73.674881 
	C340.725372,73.157173 340.005035,72.613388 339.284698,72.069611 
	C339.244965,71.563576 339.205200,71.057541 339.183746,69.830673 
	C339.198944,67.096443 339.195862,65.083046 339.192749,63.069656 
z"/>
<path fill="#172331" opacity="1.000000" stroke="none" 
	d="
M330.970764,75.787476 
	C329.348846,73.382240 327.539459,70.814865 326.470184,67.969368 
	C324.569977,62.912552 323.118317,57.687187 321.234375,52.286331 
	C321.308929,50.402897 321.628082,48.765461 321.947235,47.128025 
	C322.536926,47.077259 323.126617,47.026497 323.716278,46.975731 
	C328.879089,55.678925 332.168610,64.941399 330.970764,75.787476 
z"/>
<path fill="#16242C" opacity="1.000000" stroke="none" 
	d="
M77.139610,282.150360 
	C76.352371,287.863770 75.682152,293.598145 74.666451,299.270630 
	C74.490547,300.253052 72.852020,300.973572 71.889084,301.815094 
	C71.577911,300.676788 70.861137,299.471375 71.036064,298.413452 
	C71.460609,295.845856 72.299934,293.346832 73.074921,290.354126 
	C73.033035,289.848419 72.888359,289.808807 72.743668,289.769196 
	C70.800003,291.880829 68.830338,293.969360 66.922394,296.112793 
	C65.770683,297.406647 64.749893,298.819244 63.557571,300.071136 
	C63.447334,300.186859 62.011173,299.366425 62.048351,299.246460 
	C62.547016,297.637115 62.881691,295.832062 63.869114,294.545288 
	C67.291542,290.085266 70.954071,285.809509 75.012924,281.375305 
	C76.046936,281.574768 76.593277,281.862549 77.139610,282.150360 
z"/>
<path fill="#182733" opacity="1.000000" stroke="none" 
	d="
M244.507629,56.912903 
	C245.068024,55.515499 245.907257,54.244335 246.794510,52.686127 
	C250.325653,54.935341 253.808777,57.471600 257.653809,60.010735 
	C258.015717,60.013615 258.004883,59.991467 258.041138,60.290363 
	C258.397644,61.116245 258.717865,61.643230 259.038086,62.170219 
	C260.000580,62.412693 260.963104,62.655163 262.216614,62.922386 
	C267.040833,66.231148 271.574066,69.515160 276.723389,72.754898 
	C277.885803,72.472717 278.432037,72.234810 278.978271,71.996895 
	C278.978271,71.996887 279.014465,72.008141 278.957153,72.377106 
	C278.562073,73.878700 278.224335,75.011322 277.886597,76.143936 
	C276.032806,75.485992 274.179077,74.828056 271.763458,73.912376 
	C269.792786,73.442383 268.384003,73.230118 266.975189,73.017860 
	C266.550354,73.016258 266.125549,73.014664 265.234009,73.109924 
	C264.575775,73.343765 264.389404,73.487419 264.208191,73.637733 
	C263.737061,73.639221 263.265900,73.640701 262.438354,73.401779 
	C262.077698,72.846550 262.074677,72.531708 262.072815,72.216858 
	C262.887329,71.742371 263.701813,71.267883 265.938049,69.965164 
	C258.315338,65.306824 251.550903,61.172981 244.507629,56.912903 
z"/>
<path fill="#1E233D" opacity="1.000000" stroke="none" 
	d="
M106.848244,359.322205 
	C109.503700,358.663269 111.923660,358.271454 114.641754,357.988403 
	C114.921638,358.266571 114.903389,358.435944 114.713943,359.010986 
	C114.367790,359.625458 114.201035,359.840668 114.042473,360.062225 
	C113.929489,360.502197 113.816505,360.942139 113.419136,361.979706 
	C112.767570,364.738190 112.400391,366.899078 112.033211,369.059967 
	C111.506012,370.268372 111.203125,371.667053 110.386406,372.629883 
	C109.620842,373.532379 108.072350,374.701630 107.297371,374.447113 
	C106.134102,374.065125 104.462166,372.459167 104.550819,371.519318 
	C104.928673,367.513489 105.874321,363.561188 106.848244,359.322205 
z"/>
<path fill="#1E233D" opacity="1.000000" stroke="none" 
	d="
M153.082977,352.924744 
	C155.337524,351.671631 157.585022,350.446014 160.151245,349.191223 
	C161.130005,349.264374 161.790009,349.366638 162.995621,349.607910 
	C163.541229,349.746918 163.806900,349.933441 163.806900,349.933441 
	C166.841827,351.375397 171.876221,352.362122 170.542267,356.365692 
	C169.025665,360.917358 164.497345,357.589966 161.398666,357.010132 
	C159.021744,356.565338 156.834366,355.107666 154.108368,353.802002 
	C153.474991,353.328735 153.287872,353.163055 153.092667,353.006470 
	C153.092667,353.006470 153.075912,352.952209 153.082977,352.924744 
z"/>
<path fill="#1E233D" opacity="1.000000" stroke="none" 
	d="
M109.972366,335.017700 
	C111.541687,338.605103 113.304451,342.127441 114.548447,345.824310 
	C114.871788,346.785187 113.574715,348.291351 113.021912,349.546997 
	C111.915543,348.976044 110.394821,348.683990 109.785393,347.778564 
	C108.325645,345.609772 107.294464,343.152557 105.930824,340.198883 
	C105.575821,339.077240 105.380295,338.568481 105.184769,338.059692 
	C105.157768,337.612183 105.130768,337.164642 105.114624,336.128662 
	C105.722641,334.408203 106.319786,333.276276 106.916931,332.144318 
	C107.166878,332.385925 107.416824,332.627502 107.965012,333.185364 
	C108.424690,333.670959 108.594284,333.831696 108.772034,333.983795 
	C108.772034,333.983795 108.907127,334.103699 109.119431,334.304962 
	C109.536827,334.687286 109.750374,334.857788 109.972366,335.017700 
z"/>
<path fill="#16242C" opacity="1.000000" stroke="none" 
	d="
M241.747025,83.778908 
	C241.508118,84.245659 240.961594,84.510544 239.773193,84.834831 
	C231.429993,84.408142 223.707214,83.336281 216.033966,83.617340 
	C209.649933,83.851166 203.324112,85.674484 196.972504,86.793739 
	C196.969727,86.531700 196.966949,86.269669 196.967407,85.610191 
	C206.322983,83.757607 215.635468,81.706940 225.043060,81.077370 
	C230.428635,80.716957 235.968826,82.667145 241.747025,83.778908 
z"/>
<path fill="#16242C" opacity="1.000000" stroke="none" 
	d="
M332.089783,143.923615 
	C332.285583,143.954742 332.481384,143.985870 332.972473,144.068436 
	C322.524292,148.528046 314.377625,143.464554 306.750122,136.744858 
	C306.006042,136.089340 305.819519,134.800980 305.374146,133.806396 
	C306.660400,133.258408 307.946655,132.710434 309.570801,132.431244 
	C311.621643,134.288391 313.334625,135.876740 314.940369,137.663879 
	C317.327759,143.304382 322.371216,142.698868 327.385406,143.091797 
	C329.189911,143.427658 330.639832,143.675644 332.089783,143.923615 
z"/>
<path fill="#19262F" opacity="1.000000" stroke="none" 
	d="
M339.234985,72.504150 
	C340.005035,72.613388 340.725372,73.157173 341.691101,73.822189 
	C338.983978,83.447853 336.031494,92.952278 332.711060,103.015556 
	C331.891876,104.711182 331.440674,105.847946 330.708008,106.959770 
	C330.239166,106.915550 330.051788,106.896263 329.864441,106.876984 
	C329.926056,104.547272 329.987640,102.217560 330.122925,99.235336 
	C330.845581,97.696953 331.494598,96.811096 332.143616,95.925232 
	C335.697510,88.632706 339.543091,81.429535 339.234985,72.504150 
z"/>
<path fill="#1E233D" opacity="1.000000" stroke="none" 
	d="
M81.156212,339.322052 
	C81.443657,342.643066 81.677277,346.197571 81.892654,350.154327 
	C81.797424,350.858521 81.720428,351.160461 81.453522,351.964508 
	C81.263603,352.466614 81.040146,352.725067 81.040146,352.725067 
	C80.654449,353.796204 80.510361,355.074768 79.817268,355.881927 
	C79.077759,356.743164 77.819550,357.159058 76.787781,357.769348 
	C76.250046,356.845001 75.201874,355.882172 75.268196,355.003418 
	C75.486160,352.115326 76.108391,349.257721 76.718338,345.944000 
	C76.861374,345.499573 76.893822,345.447693 76.893822,345.447693 
	C76.979904,345.170349 77.065994,344.892975 77.380745,344.109283 
	C77.737625,343.474640 77.860458,343.341309 77.977921,343.203064 
	C77.977921,343.203064 78.063515,343.120667 78.373589,342.935272 
	C79.460564,341.842133 80.237473,340.934357 81.014374,340.026611 
	C81.014374,340.026611 81.102386,339.555542 81.156212,339.322052 
z"/>
<path fill="#1C2338" opacity="1.000000" stroke="none" 
	d="
M123.890259,351.009247 
	C124.654556,351.256226 125.418854,351.503174 126.459793,351.865601 
	C126.754692,352.460236 126.772949,352.939423 126.749748,353.947876 
	C126.727814,354.938568 126.747353,355.399933 126.766891,355.861328 
	C126.773201,356.187988 126.889336,356.563904 126.768456,356.833557 
	C125.802208,358.988983 124.423470,363.054749 123.854622,362.946411 
	C120.633179,362.332855 117.122742,361.202332 117.110123,356.355621 
	C117.023781,355.981750 116.987152,355.995117 117.337952,356.026489 
	C119.755920,354.374969 121.823090,352.692108 123.890259,351.009247 
z"/>
<path fill="#182629" opacity="1.000000" stroke="none" 
	d="
M312.244385,87.311676 
	C312.692993,85.858795 313.320251,84.684532 314.023865,83.165482 
	C318.972168,90.632889 323.844147,98.445091 328.745880,106.823296 
	C328.501831,107.949287 328.228027,108.509277 327.954224,109.069260 
	C322.777161,101.909607 317.600098,94.749947 312.244385,87.311676 
z"/>
<path fill="#16242C" opacity="1.000000" stroke="none" 
	d="
M253.969849,49.982410 
	C253.940170,50.921955 253.910492,51.861496 253.802582,53.083984 
	C249.649979,48.644661 245.518402,43.969116 241.573868,39.140781 
	C241.082993,38.539906 241.583771,37.128895 241.625046,36.093269 
	C242.780121,36.431965 244.370850,36.406990 245.011810,37.174843 
	C247.297073,39.912506 249.259491,42.919659 251.670792,45.912491 
	C251.997467,46.000168 251.986069,45.990131 251.990997,46.324856 
	C252.653915,47.767189 253.311874,48.874798 253.969849,49.982410 
z"/>
<path fill="#19262F" opacity="1.000000" stroke="none" 
	d="
M276.785492,90.733383 
	C276.586670,91.223869 276.113281,91.482964 275.399353,91.860367 
	C269.043518,90.639519 262.928223,89.300377 256.434631,87.605156 
	C256.057129,86.918053 256.056274,86.587029 256.053833,86.256004 
	C262.872864,87.671333 269.691864,89.086662 276.785492,90.733383 
z"/>
<path fill="#1B2D28" opacity="1.000000" stroke="none" 
	d="
M110.943695,310.511719 
	C110.825073,311.642975 110.514565,312.514343 110.136154,313.728363 
	C105.432396,309.279968 100.796547,304.488922 96.051666,299.375000 
	C96.416901,298.804871 96.891182,298.557556 97.601189,298.186432 
	C102.141876,302.125671 106.446846,306.188721 110.943695,310.511719 
z"/>
<path fill="#212244" opacity="1.000000" stroke="none" 
	d="
M315.047577,137.465088 
	C313.334625,135.876740 311.621643,134.288391 309.923645,132.441833 
	C311.672974,132.255249 313.407410,132.326859 315.787109,132.677307 
	C319.093140,135.702026 324.565918,135.310883 324.541260,140.539169 
	C322.783539,140.190277 321.437103,139.895905 319.886505,139.409790 
	C319.019653,138.855316 318.356964,138.492569 317.359497,138.066971 
	C316.365631,137.824432 315.706604,137.644760 315.047577,137.465088 
z"/>
<path fill="#1C2338" opacity="1.000000" stroke="none" 
	d="
M150.936401,367.204437 
	C153.957397,372.179199 156.978409,377.153992 160.236328,382.518951 
	C155.820160,382.521820 155.820160,382.521820 151.662201,372.238403 
	C151.261307,370.154602 151.098846,368.679504 150.936401,367.204437 
z"/>
<path fill="#232E3E" opacity="1.000000" stroke="none" 
	d="
M77.345718,282.133331 
	C76.593277,281.862549 76.046936,281.574768 75.236313,281.127014 
	C75.077187,276.546539 75.182335,272.126038 75.474495,267.346924 
	C76.419441,267.234406 77.177391,267.480530 78.003220,267.917999 
	C78.358467,271.775116 78.645821,275.440826 78.839661,279.808441 
	C78.485855,281.049194 78.225578,281.588074 77.965302,282.126953 
	C77.965302,282.126953 77.551826,282.116302 77.345718,282.133331 
z"/>
<path fill="#1F2240" opacity="1.000000" stroke="none" 
	d="
M150.870697,366.900574 
	C151.098846,368.679504 151.261307,370.154602 151.451447,371.808105 
	C151.499191,373.130798 151.665253,374.297058 151.497101,375.412933 
	C151.337967,376.468933 150.828064,377.472076 150.472427,378.498474 
	C149.495316,377.838348 148.518188,377.178223 147.274811,376.046021 
	C147.088150,373.411102 147.167725,371.248291 147.247299,369.085449 
	C147.224228,368.323425 147.201157,367.561432 147.208618,366.421112 
	C148.154236,366.029083 149.069336,366.015381 150.327133,365.995789 
	C150.714874,366.192169 150.759933,366.394440 150.870697,366.900574 
z"/>
<path fill="#1B2D28" opacity="1.000000" stroke="none" 
	d="
M106.786865,331.805847 
	C106.319786,333.276276 105.722641,334.408203 105.082474,335.793915 
	C102.361961,329.630951 99.684471,323.214233 96.895279,316.457214 
	C97.276649,316.079346 97.769722,316.041809 98.632019,315.972351 
	C101.553093,321.116058 104.104942,326.291718 106.786865,331.805847 
z"/>
<path fill="#172331" opacity="1.000000" stroke="none" 
	d="
M332.107605,95.496155 
	C331.494598,96.811096 330.845581,97.696953 330.087463,98.798569 
	C329.295074,93.990555 328.611786,88.966782 327.881836,83.515518 
	C328.712494,81.633286 329.589844,80.178543 330.586487,78.434387 
	C331.161041,83.785667 331.616302,89.426369 332.107605,95.496155 
z"/>
<path fill="#192335" opacity="1.000000" stroke="none" 
	d="
M324.952545,140.593689 
	C324.565918,135.310883 319.093140,135.702026 316.214172,132.747925 
	C319.828979,134.231857 323.662018,135.924011 327.899841,138.001694 
	C328.509369,138.598007 328.719818,138.802872 328.936035,139.001831 
	C328.936035,139.001831 328.980988,139.028458 329.145905,139.209503 
	C329.516846,139.600433 329.729126,139.803833 329.947601,140.000763 
	C329.947601,140.000763 329.985901,140.009369 330.153137,140.193878 
	C330.539856,140.596695 330.766815,140.806900 331.001251,141.009003 
	C331.001251,141.009003 330.992828,141.007263 331.162109,141.176880 
	C331.563171,141.573547 331.802216,141.792709 332.048523,142.003952 
	C332.048523,142.003952 332.014954,141.951920 332.032043,141.925705 
	C332.057037,142.349960 332.064880,142.800415 332.081238,143.587250 
	C330.639832,143.675644 329.189911,143.427658 327.264740,142.846832 
	C326.177185,141.873901 325.564880,141.233795 324.952545,140.593689 
z"/>
<path fill="#182629" opacity="1.000000" stroke="none" 
	d="
M331.945770,125.510170 
	C332.091888,126.522102 332.078583,127.249931 332.062561,128.338562 
	C327.970215,124.888313 323.880615,121.077232 319.585846,117.014053 
	C319.796906,116.364586 320.213135,115.967232 320.750580,115.388565 
	C324.509979,118.546844 328.148163,121.886452 331.945770,125.510170 
z"/>
<path fill="#19262F" opacity="1.000000" stroke="none" 
	d="
M337.900543,128.760132 
	C337.064087,128.786148 336.147217,128.563629 335.019867,127.876465 
	C334.534546,126.929276 334.259735,126.446754 333.984924,125.964233 
	C333.984924,125.964226 334.009583,125.988518 334.022888,125.999649 
	C332.914429,122.157394 331.792633,118.304016 330.811127,113.987297 
	C331.570679,113.035995 332.189941,112.548035 332.809174,112.060074 
	C333.510742,114.801147 334.212311,117.542229 335.017761,120.981621 
	C335.391815,122.449516 335.661987,123.219101 335.932159,123.988678 
	C336.561493,125.496323 337.190826,127.003967 337.900543,128.760132 
z"/>
<path fill="#1B2139" opacity="1.000000" stroke="none" 
	d="
M169.074493,319.627075 
	C168.362228,319.376617 167.852524,318.860718 167.151276,318.149963 
	C167.980972,315.930817 168.794403,313.751495 170.129730,311.961578 
	C170.636108,311.282837 172.344803,311.501038 173.505478,311.310394 
	C173.570297,312.471924 174.118622,313.957367 173.601624,314.729095 
	C172.441040,316.461487 170.751358,317.839386 169.074493,319.627075 
z"/>
<path fill="#1B2139" opacity="1.000000" stroke="none" 
	d="
M81.589722,291.200165 
	C82.079811,293.758270 82.844124,296.309021 82.912987,298.878418 
	C82.937477,299.792114 81.272652,300.751068 80.378960,301.689362 
	C79.722282,300.590698 78.609238,299.530457 78.512848,298.384674 
	C78.357124,296.533447 78.870247,294.625946 79.314812,292.290680 
	C80.215729,291.626160 80.902725,291.413147 81.589722,291.200165 
z"/>
<path fill="#172331" opacity="1.000000" stroke="none" 
	d="
M147.129913,369.442078 
	C147.167725,371.248291 147.088150,373.411102 147.038971,375.870300 
	C146.699371,379.012085 146.329391,381.857513 145.959412,384.702911 
	C145.271667,384.589661 144.583939,384.476379 143.896210,384.363098 
	C142.960968,379.198303 145.453735,374.571808 147.129913,369.442078 
z"/>
<path fill="#16242C" opacity="1.000000" stroke="none" 
	d="
M169.415283,324.038635 
	C169.020905,323.716217 169.009552,323.347534 168.990875,322.704620 
	C171.012497,321.266052 173.041428,320.101715 175.070343,318.937378 
	C175.419022,319.620483 175.767685,320.303558 176.116333,320.986633 
	C174.010315,321.988556 171.904312,322.990448 169.415283,324.038635 
z"/>
<path fill="#122028" opacity="1.000000" stroke="none" 
	d="
M160.289948,329.509583 
	C160.149750,328.753235 160.364304,328.169708 160.675583,327.369354 
	C162.518402,327.502960 164.311981,327.710724 165.988998,328.268738 
	C166.739777,328.518555 167.256851,329.470764 167.879974,330.104248 
	C166.987671,330.543365 166.023560,331.447205 165.218338,331.322784 
	C163.646820,331.079987 162.164154,330.262146 160.289948,329.509583 
z"/>
<path fill="#182629" opacity="1.000000" stroke="none" 
	d="
M81.608437,290.784668 
	C80.902725,291.413147 80.215729,291.626160 79.278320,291.951477 
	C78.690781,289.021393 78.353653,285.978973 77.990913,282.531738 
	C78.225578,281.588074 78.485855,281.049194 78.874512,280.239868 
	C79.877647,283.436005 80.752403,286.902588 81.608437,290.784668 
z"/>
<path fill="#1C2338" opacity="1.000000" stroke="none" 
	d="
M238.963135,116.976715 
	C239.474380,117.213066 239.990326,117.473480 240.758179,117.875061 
	C240.709274,119.503593 240.408478,120.990967 239.664459,122.733124 
	C238.141739,121.692719 237.062225,120.397507 235.982697,119.102295 
	C235.982697,119.102303 236.043274,118.994133 236.217896,118.835144 
	C236.566391,118.519890 236.732788,118.356026 236.891724,118.184555 
	C236.891724,118.184555 237.012680,118.073799 237.316010,117.913864 
	C238.078094,117.491165 238.536835,117.228409 238.995575,116.965652 
	C238.995575,116.965660 238.967819,117.000793 238.963135,116.976715 
z"/>
<path fill="#232E3E" opacity="1.000000" stroke="none" 
	d="
M89.106735,287.357605 
	C89.292702,286.743744 89.505371,286.516113 89.875153,286.115112 
	C90.032219,285.941650 90.015244,285.976959 90.135208,286.289856 
	C91.451714,288.420746 92.648247,290.238800 93.844780,292.056824 
	C93.844780,292.056824 93.931190,292.096497 94.060997,292.256012 
	C94.322754,292.581421 94.465103,292.737823 94.617867,292.884766 
	C94.671387,293.090729 94.724915,293.296661 94.862640,294.029419 
	C94.946846,294.556183 94.976364,294.989471 94.976364,294.989471 
	C94.023895,295.272461 93.071419,295.555420 91.824562,295.863953 
	C90.731247,293.174255 89.932320,290.458984 89.106735,287.357605 
z"/>
<path fill="#182629" opacity="1.000000" stroke="none" 
	d="
M278.030884,76.449554 
	C278.224335,75.011322 278.562073,73.878700 278.950806,72.394958 
	C280.588959,75.151306 282.176147,78.258766 283.946045,81.669189 
	C283.828278,82.498154 283.527771,83.024162 283.096985,83.824867 
	C281.369537,81.651436 279.772369,79.203308 278.030884,76.449554 
z"/>
<path fill="#232E3E" opacity="1.000000" stroke="none" 
	d="
M332.806946,111.674210 
	C332.189941,112.548035 331.570679,113.035995 330.749786,113.633881 
	C329.736969,112.403862 328.925842,111.063934 328.034485,109.396637 
	C328.228027,108.509277 328.501831,107.949287 328.916290,107.111244 
	C329.056946,106.833191 329.459930,106.865929 329.662170,106.871460 
	C330.051788,106.896263 330.239166,106.915550 330.718079,106.968147 
	C331.009644,107.001457 331.030792,107.015770 331.185242,107.221916 
	C331.789215,107.943756 332.238739,108.459450 332.688232,108.975143 
	C332.727051,109.746208 332.765900,110.517273 332.806946,111.674210 
z"/>
<path fill="#122028" opacity="1.000000" stroke="none" 
	d="
M255.617279,86.211388 
	C256.056274,86.587029 256.057129,86.918053 256.055359,87.496674 
	C252.628723,87.771706 249.203094,87.799156 245.396454,87.824829 
	C245.108414,87.020790 245.201385,86.218521 245.152527,85.301933 
	C248.400681,85.514000 251.790695,85.840385 255.617279,86.211388 
z"/>
<path fill="#182629" opacity="1.000000" stroke="none" 
	d="
M261.624847,72.177475 
	C262.074677,72.531708 262.077698,72.846550 262.085022,73.396072 
	C259.643433,73.783653 257.198700,73.936562 254.388641,74.033974 
	C254.030792,73.525864 254.038284,73.073242 254.049805,72.281082 
	C256.428162,72.007057 258.802521,72.072578 261.624847,72.177475 
z"/>
<path fill="#1C2338" opacity="1.000000" stroke="none" 
	d="
M370.103119,123.688660 
	C369.234467,123.265694 368.636414,122.664001 367.845337,121.791878 
	C367.663544,121.237961 367.705078,120.958977 367.894165,120.256134 
	C368.011353,119.827759 368.098114,119.380333 368.098114,119.380333 
	C368.098114,119.380333 368.195923,119.225304 368.513214,119.127823 
	C369.855682,120.121849 370.880859,121.213356 371.906067,122.304848 
	C371.395264,122.706535 370.884491,123.108238 370.103119,123.688660 
z"/>
<path fill="#1A282F" opacity="1.000000" stroke="none" 
	d="
M372.091675,122.068481 
	C370.880859,121.213356 369.855682,120.121849 368.573792,119.059036 
	C369.273956,118.446175 370.230835,117.804626 371.187714,117.163086 
	C371.550903,118.719421 371.914093,120.275757 372.091675,122.068481 
z"/>
<path fill="#172331" opacity="1.000000" stroke="none" 
	d="
M235.739441,119.294540 
	C237.062225,120.397507 238.141739,121.692719 239.491638,122.973259 
	C238.384979,123.131836 237.007950,123.305077 235.630905,123.478310 
	C235.585999,122.147804 235.541092,120.817299 235.739441,119.294540 
z"/>
<path fill="#122028" opacity="1.000000" stroke="none" 
	d="
M141.676620,368.749878 
	C141.051941,366.656830 140.472565,364.161011 139.899414,361.363922 
	C140.511078,363.490814 141.116486,365.918915 141.676620,368.749878 
z"/>
<path fill="#122028" opacity="1.000000" stroke="none" 
	d="
M142.212708,377.669769 
	C141.974747,375.577728 141.905838,373.148712 141.902832,370.356506 
	C142.106415,372.439789 142.244095,374.886322 142.212708,377.669769 
z"/>
<path fill="#19262F" opacity="1.000000" stroke="none" 
	d="
M339.029602,63.383747 
	C339.195862,65.083046 339.198944,67.096443 339.155945,69.450966 
	C339.028687,67.760681 338.947540,65.729256 339.029602,63.383747 
z"/>
<path fill="#1B2B2E" opacity="1.000000" stroke="none" 
	d="
M93.757065,291.726318 
	C92.648247,290.238800 91.451714,288.420746 90.134399,286.281097 
	C91.232201,287.771606 92.450775,289.583710 93.757065,291.726318 
z"/>
<path fill="#19262F" opacity="1.000000" stroke="none" 
	d="
M112.219070,368.749756 
	C112.400391,366.899078 112.767570,364.738190 113.328178,362.308044 
	C113.149384,364.172363 112.777153,366.305969 112.219070,368.749756 
z"/>
<path fill="#232E3E" opacity="1.000000" stroke="none" 
	d="
M330.999573,106.993080 
	C331.440674,105.847946 331.891876,104.711182 332.549377,103.352715 
	C332.714935,104.125954 332.674255,105.120903 332.329163,106.510925 
	C331.693756,106.945801 331.362457,106.982391 331.030792,107.015770 
	C331.030792,107.015770 331.009644,107.001457 330.999573,106.993080 
z"/>
<path fill="#182733" opacity="1.000000" stroke="none" 
	d="
M80.737022,340.160828 
	C80.237473,340.934357 79.460564,341.842133 78.425034,342.905579 
	C78.930824,342.139191 79.695244,341.217133 80.737022,340.160828 
z"/>
<path fill="#182629" opacity="1.000000" stroke="none" 
	d="
M278.941345,71.683487 
	C278.432037,72.234810 277.885803,72.472717 277.062683,72.822281 
	C276.657715,72.408218 276.529633,71.882515 276.344971,71.089012 
	C276.748260,70.372597 277.208099,69.923988 277.803802,69.272667 
	C278.261261,69.836662 278.582825,70.603363 278.941345,71.683487 
z"/>
<path fill="#122028" opacity="1.000000" stroke="none" 
	d="
M137.781174,356.777374 
	C137.324448,356.228302 136.790482,355.384491 136.175095,354.245026 
	C136.630432,354.793793 137.167175,355.638214 137.781174,356.777374 
z"/>
<path fill="#16242C" opacity="1.000000" stroke="none" 
	d="
M189.811905,89.052536 
	C190.250992,89.658447 190.561081,90.405754 190.971558,91.436798 
	C190.608932,90.878334 190.145920,90.036133 189.811905,89.052536 
z"/>
<path fill="#182629" opacity="1.000000" stroke="none" 
	d="
M267.310547,73.143196 
	C268.384003,73.230118 269.792786,73.442383 271.524414,73.775444 
	C270.446808,73.687012 269.046387,73.477776 267.310547,73.143196 
z"/>
<path fill="#182629" opacity="1.000000" stroke="none" 
	d="
M277.738586,67.622650 
	C277.537628,67.176308 277.316345,66.438766 277.046082,65.417923 
	C277.237488,65.866898 277.477875,66.599167 277.738586,67.622650 
z"/>
<path fill="#19262F" opacity="1.000000" stroke="none" 
	d="
M331.185242,107.221916 
	C331.362457,106.982391 331.693756,106.945801 332.272308,106.881577 
	C332.579224,107.326767 332.638550,107.796387 332.693054,108.620575 
	C332.238739,108.459450 331.789215,107.943756 331.185242,107.221916 
z"/>
<path fill="#122028" opacity="1.000000" stroke="none" 
	d="
M130.573898,327.894440 
	C130.074722,327.748871 129.309341,327.450867 128.276154,326.990631 
	C128.774811,327.132965 129.541260,327.437500 130.573898,327.894440 
z"/>
<path fill="#1B2D28" opacity="1.000000" stroke="none" 
	d="
M335.893250,123.681946 
	C335.661987,123.219101 335.391815,122.449516 335.049072,121.383392 
	C335.269104,121.849640 335.561737,122.612427 335.893250,123.681946 
z"/>
<path fill="#19262F" opacity="1.000000" stroke="none" 
	d="
M133.174774,370.327026 
	C133.418320,370.811188 133.664413,371.616730 133.961639,372.736176 
	C133.734283,372.249512 133.455795,371.448944 133.174774,370.327026 
z"/>
<path fill="#19262F" opacity="1.000000" stroke="none" 
	d="
M339.925049,59.293499 
	C339.923492,59.502792 339.802551,59.875187 339.615845,60.418190 
	C339.635284,60.211403 339.720520,59.834000 339.925049,59.293499 
z"/>
<path fill="#1B2D28" opacity="1.000000" stroke="none" 
	d="
M105.211266,338.335754 
	C105.380295,338.568481 105.575821,339.077240 105.849068,339.848267 
	C105.697113,339.610931 105.467430,339.111389 105.211266,338.335754 
z"/>
<path fill="#16242C" opacity="1.000000" stroke="none" 
	d="
M166.270081,325.025391 
	C166.176956,324.757202 166.430145,324.602814 166.880157,324.690918 
	C166.811722,324.795502 166.658188,324.864105 166.270081,325.025391 
z"/>
<path fill="#172331" opacity="1.000000" stroke="none" 
	d="
M238.741821,117.051941 
	C238.536835,117.228409 238.078094,117.491165 237.383652,117.867500 
	C237.594650,117.700127 238.041351,117.419174 238.741821,117.051941 
z"/>
<path fill="#19262F" opacity="1.000000" stroke="none" 
	d="
M126.791931,355.574493 
	C126.747353,355.399933 126.727814,354.938568 126.742149,354.307953 
	C126.789673,354.521698 126.803329,354.904694 126.791931,355.574493 
z"/>
<path fill="#182733" opacity="1.000000" stroke="none" 
	d="
M81.108688,352.673248 
	C81.040146,352.725067 81.263603,352.466614 81.318863,352.412079 
	C81.374130,352.357544 81.177223,352.621429 81.108688,352.673248 
z"/>
<path fill="#19262F" opacity="1.000000" stroke="none" 
	d="
M163.752228,349.872742 
	C163.806900,349.933441 163.541229,349.746918 163.485504,349.699463 
	C163.429779,349.652039 163.697556,349.812073 163.752228,349.872742 
z"/>
<path fill="#19262F" opacity="1.000000" stroke="none" 
	d="
M153.205872,353.158508 
	C153.287872,353.163055 153.474991,353.328735 153.784485,353.635376 
	C153.683884,353.657318 153.485260,353.505096 153.205872,353.158508 
z"/>
<path fill="#182733" opacity="1.000000" stroke="none" 
	d="
M242.761124,48.848652 
	C242.695801,48.845310 242.538605,48.715546 242.280792,48.472290 
	C242.358521,48.458347 242.521545,48.579487 242.761124,48.848652 
z"/>
<path fill="#16242C" opacity="1.000000" stroke="none" 
	d="
M192.657242,86.622269 
	C192.761490,86.578278 192.403961,86.855980 192.300964,86.905258 
	C192.197968,86.954544 192.552994,86.666260 192.657242,86.622269 
z"/>
<path fill="#122028" opacity="1.000000" stroke="none" 
	d="
M138.520645,357.855896 
	C138.425659,357.848785 138.272598,357.657074 138.055542,357.283844 
	C138.152512,357.288055 138.309509,357.477692 138.520645,357.855896 
z"/>
<path fill="#16242C" opacity="1.000000" stroke="none" 
	d="
M191.072662,87.505615 
	C191.168991,87.425499 191.014603,87.874908 190.928345,88.099144 
	C190.772537,88.056198 190.817291,87.810318 191.072662,87.505615 
z"/>
<path fill="#19262F" opacity="1.000000" stroke="none" 
	d="
M114.195450,359.924133 
	C114.201035,359.840668 114.367790,359.625458 114.674873,359.263550 
	C114.698883,359.365997 114.546021,359.591187 114.195450,359.924133 
z"/>
<path fill="#122028" opacity="1.000000" stroke="none" 
	d="
M139.572418,359.893188 
	C139.468521,359.893402 139.311737,359.705261 139.092972,359.336182 
	C139.203140,359.328888 139.365982,359.512054 139.572418,359.893188 
z"/>
<path fill="#1B2D28" opacity="1.000000" stroke="none" 
	d="
M355.374146,169.262360 
	C355.468689,169.283859 355.624695,169.508102 355.863892,169.924683 
	C355.758362,169.915405 355.587891,169.698105 355.374146,169.262360 
z"/>
<path fill="#1B2D28" opacity="1.000000" stroke="none" 
	d="
M354.798767,166.919189 
	C354.883057,166.961273 354.911499,167.145325 354.961151,167.606598 
	C354.773651,167.646225 354.693817,167.371994 354.798767,166.919189 
z"/>
<path fill="#1B2D28" opacity="1.000000" stroke="none" 
	d="
M331.891479,141.816879 
	C331.802216,141.792709 331.563171,141.573547 331.161255,141.172684 
	C331.261505,141.182602 331.509247,141.392914 331.891479,141.816879 
z"/>
<path fill="#16242C" opacity="1.000000" stroke="none" 
	d="
M252.648895,45.476265 
	C252.857529,45.290009 252.982635,45.450062 252.746017,45.597923 
	C252.334961,45.827229 252.160522,45.908680 251.986069,45.990131 
	C251.986069,45.990131 251.997467,46.000168 252.000793,46.006451 
	C252.149490,45.895996 252.294876,45.779259 252.648895,45.476265 
z"/>
<path fill="#1B2D28" opacity="1.000000" stroke="none" 
	d="
M330.853943,140.828293 
	C330.766815,140.806900 330.539856,140.596695 330.159332,140.212494 
	C330.259888,140.216873 330.496033,140.417206 330.853943,140.828293 
z"/>
<path fill="#1B2D28" opacity="1.000000" stroke="none" 
	d="
M329.800354,139.836487 
	C329.729126,139.803833 329.516846,139.600433 329.159363,139.231888 
	C329.235291,139.259598 329.450378,139.459259 329.800354,139.836487 
z"/>
<path fill="#1B2D28" opacity="1.000000" stroke="none" 
	d="
M328.799622,138.827698 
	C328.719818,138.802872 328.509369,138.598007 328.153534,138.227722 
	C328.245636,138.237411 328.465912,138.432526 328.799622,138.827698 
z"/>
<path fill="#182629" opacity="1.000000" stroke="none" 
	d="
M276.701385,57.656048 
	C276.617188,57.607178 276.451538,57.320156 276.177856,56.800301 
	C276.243713,56.856411 276.427094,57.139889 276.701385,57.656048 
z"/>
<path fill="#1A282F" opacity="1.000000" stroke="none" 
	d="
M368.039856,119.477295 
	C368.098114,119.380333 368.011353,119.827759 367.966187,120.054855 
	C367.869720,120.039940 367.889923,119.804039 368.039856,119.477295 
z"/>
<path fill="#172331" opacity="1.000000" stroke="none" 
	d="
M236.750656,118.288925 
	C236.732788,118.356026 236.566391,118.519890 236.260239,118.789871 
	C236.267776,118.713913 236.428314,118.543816 236.750656,118.288925 
z"/>
<path fill="#182629" opacity="1.000000" stroke="none" 
	d="
M264.362793,73.551773 
	C264.389404,73.487419 264.575775,73.343765 264.915405,73.105453 
	C264.896362,73.175636 264.714294,73.329536 264.362793,73.551773 
z"/>
<path fill="#1B2B2E" opacity="1.000000" stroke="none" 
	d="
M95.188293,295.003723 
	C94.976364,294.989471 94.946846,294.556183 94.937935,294.339600 
	C95.167572,294.287659 95.380539,294.480560 95.695938,294.875122 
	C95.823936,295.048492 95.400215,295.017975 95.188293,295.003723 
z"/>
<path fill="#1B2D28" opacity="1.000000" stroke="none" 
	d="
M108.666809,333.842468 
	C108.594284,333.831696 108.424690,333.670959 108.145988,333.373108 
	C108.229324,333.369965 108.406952,333.522156 108.666809,333.842468 
z"/>
<path fill="#1B2D28" opacity="1.000000" stroke="none" 
	d="
M109.831009,334.868347 
	C109.750374,334.857788 109.536827,334.687286 109.184555,334.367523 
	C109.273506,334.367340 109.490929,334.530731 109.831009,334.868347 
z"/>
<path fill="#1B2B2E" opacity="1.000000" stroke="none" 
	d="
M94.544281,292.741638 
	C94.465103,292.737823 94.322754,292.581421 94.095627,292.288574 
	C94.187508,292.274689 94.344261,292.420319 94.544281,292.741638 
z"/>
<path fill="#182629" opacity="1.000000" stroke="none" 
	d="
M317.762756,112.865715 
	C317.841675,112.937675 317.485260,112.701515 317.410706,112.637253 
	C317.336121,112.572990 317.683838,112.793755 317.762756,112.865715 
z"/>
<path fill="#182733" opacity="1.000000" stroke="none" 
	d="
M244.635941,49.787937 
	C244.577682,49.784290 244.457718,49.666222 244.259369,49.450771 
	C244.333389,49.432892 244.464462,49.539600 244.635941,49.787937 
z"/>
<path fill="#19262F" opacity="1.000000" stroke="none" 
	d="
M343.260559,73.350494 
	C343.219116,73.351814 343.300446,73.237320 343.330200,73.221191 
	C343.359924,73.205063 343.302032,73.349167 343.260559,73.350494 
z"/>
<path fill="#182733" opacity="1.000000" stroke="none" 
	d="
M77.868195,343.284912 
	C77.860458,343.341309 77.737625,343.474640 77.513168,343.694275 
	C77.505981,343.625702 77.619820,343.486115 77.868195,343.284912 
z"/>
<path fill="#182733" opacity="1.000000" stroke="none" 
	d="
M76.875412,345.448578 
	C76.893822,345.447693 76.861374,345.499573 76.851486,345.509583 
	C76.841606,345.519592 76.857002,345.449463 76.875412,345.448578 
z"/>
<path fill="#16242C" opacity="1.000000" stroke="none" 
	d="
M195.164230,85.829315 
	C195.120514,85.901131 194.915222,85.935509 194.401031,86.014465 
	C194.365311,85.864830 194.668808,85.775787 195.164230,85.829315 
z"/>
<path fill="#182629" opacity="1.000000" stroke="none" 
	d="
M276.121918,55.144253 
	C276.067444,55.103661 276.038849,54.913517 275.976440,54.437771 
	C276.086151,54.414944 276.154541,54.695786 276.121918,55.144253 
z"/>
<path fill="#182733" opacity="1.000000" stroke="none" 
	d="
M246.620789,51.762047 
	C246.552597,51.763111 246.422745,51.636669 246.219650,51.394913 
	C246.297745,51.380520 246.435303,51.498837 246.620789,51.762047 
z"/>
<path fill="#182733" opacity="1.000000" stroke="none" 
	d="
M245.461411,50.679955 
	C245.487701,50.717468 245.340515,50.599789 245.318054,50.567165 
	C245.295609,50.534542 245.435120,50.642437 245.461411,50.679955 
z"/>
<path fill="#182629" opacity="1.000000" stroke="none" 
	d="
M318.911560,113.828278 
	C318.823212,113.811462 318.591339,113.610458 318.202637,113.241760 
	C318.308411,113.235435 318.549164,113.425446 318.911560,113.828278 
z"/>
<path fill="#010301" opacity="1.000000" stroke="none" 
	d="
M210.004196,202.076233 
	C211.936417,194.159500 213.752808,186.646973 215.569199,179.134460 
	C216.245956,179.101730 216.922714,179.069000 217.599472,179.036270 
	C218.259125,181.562180 219.004486,184.069336 219.562790,186.617447 
	C221.413483,195.064041 223.115341,203.544022 225.042755,211.972672 
	C225.915619,215.789810 224.957108,218.257919 221.256973,219.999695 
	C216.097321,222.428543 211.141205,225.289764 206.098007,227.965958 
	C205.554901,227.595520 205.011795,227.225082 204.468689,226.854645 
	C206.275253,218.729919 208.081818,210.605194 210.004196,202.076233 
z"/>
<path fill="#000000" opacity="1.000000" stroke="none" 
	d="
M291.286285,95.684166 
	C291.467773,95.813759 291.524170,96.085701 291.580597,96.357643 
	C291.423584,96.331657 291.266571,96.305672 291.013184,96.197906 
	C290.916840,96.116135 291.161224,95.826515 291.286285,95.684166 
z"/>
<path fill="#000000" opacity="1.000000" stroke="none" 
	d="
M123.939354,350.693451 
	C121.823090,352.692108 119.755920,354.374969 117.329597,356.044159 
	C118.972656,353.656830 120.974876,351.283203 123.415070,348.882568 
	C123.853035,348.855591 124.153572,349.111328 124.153580,349.111328 
	C124.098534,349.533447 124.043488,349.955536 123.939354,350.693451 
z"/>
<path fill="#000000" opacity="1.000000" stroke="none" 
	d="
M116.225967,316.178345 
	C116.825546,316.163300 117.687904,316.353424 118.798676,316.773987 
	C118.194305,316.797485 117.341530,316.590546 116.225967,316.178345 
z"/>
<path fill="#000000" opacity="1.000000" stroke="none" 
	d="
M114.225769,315.192871 
	C114.630219,315.234161 115.298187,315.384216 116.003716,315.775665 
	C115.523941,315.778595 115.006615,315.540131 114.225769,315.192871 
z"/>
<path fill="#000000" opacity="1.000000" stroke="none" 
	d="
M123.704895,348.725281 
	C123.804825,348.702057 124.052895,348.809174 124.227264,349.013794 
	C124.153572,349.111328 123.853035,348.855591 123.704895,348.725281 
z"/>
<path fill="#000000" opacity="1.000000" stroke="none" 
	d="
M196.930023,87.087769 
	C203.324112,85.674484 209.649933,83.851166 216.033966,83.617340 
	C223.707214,83.336281 231.429993,84.408142 239.509430,84.984695 
	C234.737045,86.055794 229.623856,87.471565 224.427521,87.916573 
	C216.340530,88.609131 208.198380,88.703087 200.075882,88.879433 
	C199.024445,88.902267 197.950867,87.905998 196.930023,87.087769 
z"/>
<path fill="#000000" opacity="1.000000" stroke="none" 
	d="
M241.036652,110.028091 
	C241.131851,110.017403 241.336975,110.136490 241.455673,110.335281 
	C241.369263,110.414970 241.146576,110.157867 241.036652,110.028091 
z"/>
<path fill="#000000" opacity="1.000000" stroke="none" 
	d="
M135.989655,330.460022 
	C136.035233,330.462769 135.944061,330.457306 135.989655,330.460022 
z"/>
<path fill="#000000" opacity="1.000000" stroke="none" 
	d="
M148.494690,362.853180 
	C148.639801,362.572968 148.835419,362.428741 149.031036,362.284485 
	C149.119492,362.517029 149.207916,362.749512 149.296341,362.982025 
	C149.045959,362.984406 148.795593,362.986786 148.494690,362.853180 
z"/>
<path fill="#000000" opacity="1.000000" stroke="none" 
	d="
M251.990997,46.324856 
	C252.160522,45.908680 252.334961,45.827229 252.779572,45.642735 
	C253.131699,45.845959 253.213638,46.152233 253.476227,46.958344 
	C253.656876,47.458183 253.870773,47.650993 253.870773,47.650993 
	C253.904007,48.168633 253.937256,48.686272 253.970184,49.593163 
	C253.311874,48.874798 252.653915,47.767189 251.990997,46.324856 
z"/>
<path fill="#000000" opacity="1.000000" stroke="none" 
	d="
M258.963165,61.869370 
	C258.717865,61.643230 258.397644,61.116245 258.031616,60.282593 
	C258.286591,60.506790 258.587433,61.037659 258.963165,61.869370 
z"/>
<path fill="#000000" opacity="1.000000" stroke="none" 
	d="
M256.129852,38.907425 
	C256.131409,39.027390 255.934845,39.327892 255.640121,39.542137 
	C255.671875,39.333233 255.801819,39.210594 256.129852,38.907425 
z"/>
<path fill="#16242C" opacity="1.000000" stroke="none" 
	d="
M253.819733,47.601318 
	C253.870773,47.650993 253.656876,47.458183 253.610245,47.414642 
	C253.563614,47.371105 253.768707,47.551640 253.819733,47.601318 
z"/>
<path fill="#000000" opacity="1.000000" stroke="none" 
	d="
M334.016083,126.246887 
	C334.259735,126.446754 334.534546,126.929276 334.867828,127.686951 
	C334.633301,127.484581 334.340271,127.007057 334.016083,126.246887 
z"/>
<path fill="#000000" opacity="1.000000" stroke="none" 
	d="
M72.817299,289.832794 
	C72.888359,289.808807 73.033035,289.848419 73.108063,289.955688 
	C73.038414,290.023285 72.890923,289.896393 72.817299,289.832794 
z"/>
<path fill="#010301" opacity="1.000000" stroke="none" 
	d="
M324.541260,140.539169 
	C325.564880,141.233795 326.177185,141.873901 326.910187,142.758957 
	C322.371216,142.698868 317.327759,143.304382 314.940369,137.663879 
	C315.706604,137.644760 316.365631,137.824432 317.568115,138.268692 
	C318.771301,138.889359 319.431000,139.245438 320.090698,139.601532 
	C321.437103,139.895905 322.783539,140.190277 324.541260,140.539169 
z"/>
<path fill="#16242C" opacity="1.000000" stroke="none" 
	d="
M319.886505,139.409790 
	C319.431000,139.245438 318.771301,138.889359 317.902954,138.331558 
	C318.356964,138.492569 319.019653,138.855316 319.886505,139.409790 
z"/>
</svg>