<svg width="128" height="128" viewBox="0 0 128 128" fill="none" xmlns="http://www.w3.org/2000/svg">
<ellipse cx="64.7326" cy="125.236" rx="26.9053" ry="2.3975" fill="#ABC0DC"/>
<path d="M76.4878 76.8732L76.6353 77.5798C77.1746 80.1627 78.9685 82.4696 81.3936 83.6987L76.9144 88.1779C75.6852 85.7528 73.3783 83.9589 70.7954 83.4196L70.0889 83.2721L76.4878 76.8732Z" fill="#A6A9AD"/>
<path d="M80.2205 83.8054C81.3985 82.6274 84.1082 83.4272 85.2863 84.6052L104.483 103.802C106.544 105.863 106.544 109.206 104.483 111.267C102.421 113.329 99.0791 113.329 97.0176 111.267L77.8209 92.0706C76.6429 90.8926 75.843 88.1828 77.021 87.0048L80.2205 83.8054Z" fill="#0C2B42"/>
<circle cx="55.6913" cy="63.009" r="27.5253" transform="rotate(45 55.6913 63.009)" fill="#0C2B42"/>
<circle cx="55.6913" cy="63.009" r="19.9841" transform="rotate(45 55.6913 63.009)" fill="#EAF9FF"/>
<rect x="50.0923" y="53.5433" width="21.1153" height="5.27882" rx="1" transform="rotate(45 50.0923 53.5433)" fill="#184680"/>
<rect width="21.1153" height="5.27882" rx="1" transform="matrix(-0.707107 0.707107 0.707107 0.707107 61.2904 53.5433)" fill="#184680"/>
<path d="M40.6136 16.3666C40.8688 16.4029 41.0479 16.1219 40.9074 15.9059L30.6456 0.137261C30.4731 -0.127722 30.061 0.0198247 30.096 0.334041L31.7381 15.1055C31.7603 15.3051 31.584 15.4697 31.3865 15.4339L27.3543 14.7035C27.0937 14.6563 26.9042 14.9454 27.0516 15.1656L38.6285 32.4647C38.8123 32.7394 39.2402 32.5584 39.1712 32.2352L35.7191 16.077C35.6756 15.873 35.8483 15.6879 36.0548 15.7173L40.6136 16.3666Z" fill="#F58220"/>
<path d="M73.299 29.3406L75.3115 21.9668C75.3392 21.8651 75.2112 21.7953 75.1407 21.8736L71.0957 26.3697C71.0509 26.4194 70.9709 26.412 70.936 26.3549L70.0444 24.8951C69.9984 24.8197 69.8845 24.8366 69.8623 24.9221L67.7383 33.1175C67.7107 33.2241 67.8506 33.2905 67.9158 33.2017L71.898 27.7729C71.9391 27.7168 72.0235 27.7188 72.0619 27.7767L73.1192 29.3696C73.1667 29.4411 73.2764 29.4235 73.299 29.3406Z" fill="#F58220"/>
<path d="M12.575 33.8305L11.1888 28.7442C10.8814 27.6161 12.4284 26.9675 13.0175 27.9775L14.6669 30.8058C14.8644 31.1444 15.2415 31.3364 15.6315 31.2969L24.7429 30.3742C25.3154 30.3162 25.8187 30.7522 25.8428 31.3272L26.2293 40.5403C26.2441 40.8944 26.4453 41.2142 26.7581 41.3809L29.3659 42.7705C30.3595 43.2999 29.8562 44.8127 28.7435 44.6414L24.0913 43.9252C23.6159 43.852 23.26 43.4507 23.244 42.9699L22.9712 34.7273C22.9521 34.1504 22.4499 33.7094 21.8754 33.765L13.6362 34.5629C13.1513 34.6099 12.7031 34.3005 12.575 33.8305Z" fill="#184680"/>
<path d="M54.5151 10.2063L58.8505 4.21082C59.1949 3.7345 59.9361 4.13993 59.7209 4.6869L57.5315 10.2502C57.4699 10.4069 57.4912 10.5841 57.5883 10.7217L63.0713 18.4892C63.2564 18.7514 63.15 19.1177 62.8532 19.2399L55.2424 22.3738C55.055 22.4509 54.9327 22.6335 54.9327 22.8361L54.9327 30.9517C54.9327 31.5557 54.0609 31.642 53.9424 31.0498L52.0098 21.3863C51.9645 21.1603 52.0797 20.9327 52.2886 20.8352L58.8809 17.7588C59.1665 17.6255 59.2591 17.2643 59.0727 17.0101L54.517 10.7949C54.3887 10.6199 54.3879 10.3821 54.5151 10.2063Z" fill="#184680"/>
<path d="M85.743 35.1775L77.7008 38.6175C77.1453 38.8551 76.7232 38.0868 77.2216 37.7453L83.1738 33.6673C83.3043 33.5779 83.3848 33.432 83.3908 33.2739L83.7486 23.8915C83.7608 23.5708 84.0677 23.3445 84.3776 23.4276L89.9607 24.9239C90.2104 24.9908 90.47 24.8563 90.5593 24.6136L91.7686 21.3278C91.9595 20.8089 92.7269 20.9379 92.7377 21.4907L92.8637 27.9315C92.8705 28.2765 92.5341 28.5244 92.2065 28.4159L86.7325 26.6022C86.4096 26.4952 86.0765 26.7348 86.0752 27.0749L86.0464 34.7196C86.0456 34.9191 85.9264 35.099 85.743 35.1775Z" fill="#184680"/>
</svg>
